<?xml version="1.0" encoding="UTF-8"?> <!-- Generator: Adobe Illustrator 26.3.0, SVG Export Plug-In . SVG Version: 6.00 Build 0) --> <svg xmlns="http://www.w3.org/2000/svg" xmlns:xlink="http://www.w3.org/1999/xlink" version="1.1" id="Layer_1" x="0px" y="0px" viewBox="0 0 1567.7 220" style="enable-background:new 0 0 1567.7 220;" xml:space="preserve"> <style type="text/css"> .st0{fill:#1B92D8;} .st1{fill:#FFFFFF;} .st2{fill:#111827;} </style> <path class="st0" d="M210.3,64.5v130c0,3.4-1.4,6.8-3.8,9.2c-2.4,2.4-5.7,3.8-9.2,3.8h-130c-13.8,0-27-5.5-36.8-15.2 c-9.8-9.8-15.2-23-15.2-36.8v-91c0-13.8,5.5-27,15.2-36.8c9.8-9.8,23-15.2,36.8-15.2h91c13.8,0,27,5.5,36.8,15.2 C204.8,37.5,210.3,50.7,210.3,64.5z"></path> <path class="st1" d="M118.7,64.6c0-4.3-3.3-7.8-7.4-7.8c-4.1,0-7.4,3.5-7.4,7.8v93.7c0,4.3,3.3,7.8,7.4,7.8c4.1,0,7.4-3.5,7.4-7.8 V64.6z"></path> <path class="st1" d="M151.2,94.2c0-4.4-4-7.9-8.9-7.9c-4.9,0-8.9,3.5-8.9,7.9v31.5c0,4.4,4,7.9,8.9,7.9c4.9,0,8.9-3.5,8.9-7.9V94.2z "></path> <path class="st1" d="M92.1,94.2c0-4.4-4-7.9-8.9-7.9c-4.9,0-8.9,3.5-8.9,7.9v31.5c0,4.4,4,7.9,8.9,7.9c4.9,0,8.9-3.5,8.9-7.9V94.2z"></path> <path class="st1" d="M173.3,118.9c4.1,0,7.4-3.3,7.4-7.4c0-4.1-3.3-7.4-7.4-7.4c-4.1,0-7.4,3.3-7.4,7.4 C166,115.6,169.3,118.9,173.3,118.9z"></path> <path class="st1" d="M52.2,118.9c4.1,0,7.4-3.3,7.4-7.4c0-4.1-3.3-7.4-7.4-7.4c-4.1,0-7.4,3.3-7.4,7.4 C44.8,115.6,48.1,118.9,52.2,118.9z"></path> <path class="st2" d="M329.7,193.3c-37.2,0-63.1-20.1-66.3-51.7h30.2c3.1,15.9,17.6,25.7,37.9,25.7c16.8,0,26.8-6.7,26.8-18.1 c0-9.1-6.7-14.9-20.1-17.3l-25.2-5c-29.4-5.8-43.1-20.1-43.1-43.9c0-28.9,23.2-48.3,57.8-48.3c13.4,0,57.9,3.5,62.9,48.1h-30.2 c-1.9-10.9-9-23.2-30.7-23.2c-17.4,0-28.2,7.8-28.2,20.4c0,12.6,11.1,16.8,23.1,19.3l19.1,3.9c32.2,6.7,46,19.4,46,42.3 C389.8,174.5,366.3,193.3,329.7,193.3z"></path> <path class="st2" d="M557.2,190.1v-55.7c0-17.8-9-28-24.5-28c-4.3,0.2-8.6,1.4-12.3,3.7c-3.8,2.2-6.9,5.3-9.2,9v0.4v0.5 c0.5,3.9,0.8,7.7,0.9,11.6v58.4h-29.2v-55.7c0-18.1-8.8-28-24.7-28c-4.1,0.4-8.1,1.7-11.6,4c-3.5,2.2-6.4,5.3-8.5,8.9v0.3v70.5 h-29.5V83.9h29v8.3l2.2-2.1c3.4-3.3,7.5-5.9,11.9-7.6c4.5-1.7,9.2-2.4,14-2c6.3-0.1,12.6,1.2,18.4,3.8c5.8,2.6,10.9,6.4,15.1,11.2 l0.9,1.1l1.1-0.9c5-5.1,11.1-9,17.7-11.6c6.7-2.6,13.8-3.8,20.9-3.5c26.8,0,46.2,21.5,46.2,51.2v58.4H557.2z"></path> <path class="st2" d="M655.9,192.4c-14.3-0.4-27.9-6.4-37.8-16.8c-9.9-10.3-15.3-24.2-15-38.5c-0.3-7.2,0.9-14.3,3.4-21 c2.5-6.7,6.4-12.8,11.3-18c4.9-5.2,10.9-9.3,17.5-12.1c6.6-2.8,13.6-4.3,20.8-4.4c10.7-0.2,21.2,2.7,30.2,8.4l2.1,1.3v-7.5h28.4 v106.2h-29v-7.5l-2.1,1.3C676.8,189.6,666.5,192.5,655.9,192.4L655.9,192.4z M661.1,105.4c-4,0.1-8,1-11.7,2.6c-3.7,1.6-7,4-9.7,7 c-2.8,2.9-4.9,6.4-6.3,10.2c-1.4,3.8-2,7.8-1.8,11.8c-0.1,4,0.5,8,1.9,11.7c1.4,3.7,3.6,7.2,6.3,10c2.8,2.9,6.1,5.2,9.7,6.8 c3.7,1.6,7.6,2.5,11.6,2.5c5.2,0.2,10.3-0.9,15-3.2c4.7-2.3,8.7-5.6,11.8-9.8v-0.3v-35.7v-0.3c-3-4.2-7-7.7-11.7-10 C671.5,106.5,666.3,105.3,661.1,105.4L661.1,105.4z"></path> <path class="st2" d="M740.9,190.1V83.9h29V98l2.2-2.1c9.8-9,22.7-13.9,36-13.7v27.4c-7.1-0.1-14.1,1.3-20.6,4.1 c-6.5,2.8-12.4,6.8-17.3,12v0.4v64.2L740.9,190.1z"></path> <path class="st2" d="M879.6,193.5c-25.7,0-42.3-17.9-42.3-45.5v-40.1h-23V84h22.9V45.1h28.7V84h39.3v23.9h-39.3V148 c0,12.3,7.4,19.3,20.4,19.3c5.9-0.2,11.7-1.1,17.3-2.6l3.7,24.4C898.4,192.2,889,193.7,879.6,193.5L879.6,193.5z"></path> <path class="st2" d="M1042.9,190.1l-12-29.8H959l-12,29.8h-32.1l65.5-152.8h29.2l65.3,152.8H1042.9z M970,133.2h49.9l-25.2-61.5 L970,133.2z"></path> <path class="st2" d="M1128.2,193.5c-17.3,0-46.8-5-49.9-38.5h26.3c2.1,10.7,10.2,16.2,23.9,16.2c12,0,20.1-4.2,20.1-10.7 c0-5.2-4.4-9-11.8-10.2l-23.4-4.1c-11.6-2.1-31-8.8-31-30.8c0-21.9,17.5-34.8,45.8-34.8c13.4,0,44.2,3.3,47.4,34.4h-26.2 c-1.3-8.6-9.1-13.4-21.2-13.4c-12.1,0-17.5,5.8-17.5,10.6c0,3.4,1.9,9.4,14,11.6l20.1,3.2c21.4,3.8,31.8,13.9,31.8,30.7 C1176,179.9,1157.7,193.5,1128.2,193.5z"></path> <path class="st2" d="M1237.1,193.5c-17.3,0-46.8-5-50-38.5h26.4c2.1,10.7,10.2,16.2,23.8,16.2c12,0,20.1-4.2,20.1-10.7 c0-5.2-4.4-9-11.8-10.2l-23.4-4.1c-11.6-2.1-31-8.8-31-30.8c0-21.9,17.5-34.8,45.8-34.8c13.4,0,44.2,3.3,47.4,34.4h-26.2 c-1.2-8.6-9-13.4-21.2-13.4c-12.2,0-17.5,5.8-17.5,10.6c0,3.4,1.8,9.4,14.1,11.6l20.1,3.2c21.4,3.8,31.8,13.9,31.8,30.7 C1284.9,179.9,1266.6,193.5,1237.1,193.5z"></path> <path class="st2" d="M1304.6,190.1V83.9h29v106.2H1304.6z M1318.8,61c-2.3,0.1-4.6-0.2-6.7-1c-2.1-0.8-4.1-2-5.8-3.6 c-1.7-1.6-3-3.5-3.9-5.6c-0.9-2.1-1.4-4.4-1.4-6.6c0-4.7,1.9-9.2,5.2-12.5c3.3-3.3,7.8-5.2,12.5-5.2c4.7,0,9.2,1.9,12.5,5.2 c3.3,3.3,5.2,7.8,5.2,12.5c0,2.3-0.5,4.5-1.3,6.6c-0.9,2.1-2.2,4-3.8,5.6c-1.6,1.6-3.6,2.8-5.7,3.6 C1323.3,60.7,1321.1,61.1,1318.8,61L1318.8,61z"></path> <path class="st2" d="M1400.7,193.5c-17.4,0-46.8-5-50-38.5h26.3c2.1,10.7,10.2,16.2,23.9,16.2c12,0,19.7-4.2,19.7-10.7 c0-5.2-4.4-9-11.8-10.2l-23.4-4.1c-11.6-2.1-31-8.8-31-30.8c0-21.9,17.5-34.8,45.8-34.8c13.4,0,44.2,3.3,47.4,34.4h-26.2 c-1.3-8.6-9.1-13.4-21.2-13.4c-12.1,0-17.5,5.8-17.5,10.6c0,3.4,1.9,9.4,14.1,11.6l20.1,3.2c21.4,3.8,31.8,13.9,31.8,30.7 C1448.4,179.9,1430.1,193.5,1400.7,193.5z"></path> <path class="st2" d="M1519.8,193.5c-25.7,0-42.3-17.9-42.3-45.5v-40.1h-22.9V84h22.9V45.1h28.6V84h39.3v23.9h-39.3V148 c0,12.3,7.4,19.3,20.1,19.3c5.9-0.2,11.7-1.1,17.3-2.6l3.7,24.4C1538.3,192.2,1529.1,193.7,1519.8,193.5L1519.8,193.5z"></path> </svg> 