<svg width="670" height="542" viewBox="0 0 670 542" fill="none" xmlns="http://www.w3.org/2000/svg">
<g clip-path="url(#clip0_176_95438)">
<path d="M628.729 542H41.2041C18.5352 542 0 523.474 0 500.815V41.1848C0 18.5265 18.5352 0 41.2041 0H628.729C651.398 0 669.933 18.5265 669.933 41.1848V500.749C670 523.474 651.398 542 628.729 542Z" fill="#E8F4FB"/>
<path d="M621.195 524.806H51.6718C35.7369 524.806 22.6689 511.811 22.6689 495.884V428.242C22.6689 412.315 35.7369 399.253 51.6718 399.253H621.195C637.13 399.253 650.198 412.315 650.198 428.242V495.884C650.131 511.811 637.13 524.806 621.195 524.806Z" fill="white"/>
<path d="M601.86 399.253V368.864C601.86 361.533 595.926 355.669 588.659 355.669H77.4076C70.0735 355.669 64.2063 361.6 64.2063 368.864V399.253" stroke="#BBDEF3" stroke-width="2" stroke-miterlimit="10"/>
<path d="M470.58 399.253V355.602" stroke="#BBDEF3" stroke-width="2" stroke-miterlimit="10"/>
<path d="M332.967 399.253V308.686" stroke="#BBDEF3" stroke-width="2" stroke-miterlimit="10"/>
<path d="M212.421 399.253V355.602" stroke="#BBDEF3" stroke-width="2" stroke-miterlimit="10"/>
<path d="M64.1396 141.614V185.798C64.1396 193.195 70.1402 199.26 77.6077 199.26H588.458C595.859 199.26 601.926 193.262 601.926 185.798V141.614" stroke="#BBDEF3" stroke-width="2" stroke-miterlimit="10"/>
<path d="M64.1396 141.614V185.798C64.1396 193.195 70.1402 199.26 77.6077 199.26" stroke="#BBDEF3" stroke-width="2" stroke-miterlimit="10"/>
<path d="M601.927 141.614V185.798C601.927 193.195 595.926 199.26 588.458 199.26" stroke="#BBDEF3" stroke-width="2" stroke-miterlimit="10"/>
<path d="M153.749 141.614V199.193" stroke="#BBDEF3" stroke-width="2" stroke-miterlimit="10"/>
<path d="M243.357 141.614V199.193" stroke="#BBDEF3" stroke-width="2" stroke-miterlimit="10"/>
<path d="M333.033 149.345V199.26" stroke="#BBDEF3" stroke-width="2" stroke-miterlimit="10"/>
<path d="M333.033 198.66V248.575" stroke="#BBDEF3" stroke-width="2" stroke-miterlimit="10"/>
<path d="M422.642 141.614V199.193" stroke="#BBDEF3" stroke-width="2" stroke-miterlimit="10"/>
<path d="M512.251 141.614V199.193" stroke="#BBDEF3" stroke-width="2" stroke-miterlimit="10"/>
<path d="M112.345 92.0327C128.141 92.0327 140.947 79.2327 140.947 63.4432C140.947 47.6537 128.141 34.8538 112.345 34.8538C96.5476 34.8538 83.7417 47.6537 83.7417 63.4432C83.7417 79.2327 96.5476 92.0327 112.345 92.0327Z" fill="#F2F2F2"/>
<path d="M200.553 92.0327C216.35 92.0327 229.156 79.2327 229.156 63.4432C229.156 47.6537 216.35 34.8538 200.553 34.8538C184.756 34.8538 171.95 47.6537 171.95 63.4432C171.95 79.2327 184.756 92.0327 200.553 92.0327Z" fill="#F2F2F2"/>
<path d="M315.726 76.2502C322.792 62.1281 317.066 44.9544 302.938 37.8917C288.809 30.8291 271.627 36.5519 264.561 50.6741C257.495 64.7962 263.221 81.9699 277.349 89.0326C291.478 96.0952 308.66 90.3724 315.726 76.2502Z" fill="#F2F2F2"/>
<path d="M379.971 92.0327C395.768 92.0327 408.574 79.2327 408.574 63.4432C408.574 47.6537 395.768 34.8538 379.971 34.8538C364.174 34.8538 351.368 47.6537 351.368 63.4432C351.368 79.2327 364.174 92.0327 379.971 92.0327Z" fill="#F2F2F2"/>
<path d="M471.647 92.0327C487.444 92.0327 500.25 79.2327 500.25 63.4432C500.25 47.6537 487.444 34.8538 471.647 34.8538C455.85 34.8538 443.044 47.6537 443.044 63.4432C443.044 79.2327 455.85 92.0327 471.647 92.0327Z" fill="#F2F2F2"/>
<path d="M88.0087 35.387H135.48C139.014 35.387 141.814 37.4529 141.814 39.9186V86.768C141.814 89.3004 138.947 91.2997 135.48 91.2997H88.0087C84.475 91.2997 81.6747 89.2338 81.6747 86.768V39.9186C81.6081 37.3862 84.475 35.387 88.0087 35.387Z" fill="white"/>
<path d="M175.084 35.387H222.555C226.089 35.387 228.889 37.4529 228.889 39.9186V86.768C228.889 89.3004 226.023 91.2997 222.555 91.2997H175.084C171.55 91.2997 168.75 89.2338 168.75 86.768V39.9186C168.683 37.3862 171.55 35.387 175.084 35.387Z" fill="white"/>
<path d="M263.36 35.387H310.831C314.365 35.387 317.165 37.4529 317.165 39.9186V86.768C317.165 89.3004 314.298 91.2997 310.831 91.2997H263.36C259.826 91.2997 257.026 89.2338 257.026 86.768V39.9186C256.959 37.3862 259.826 35.387 263.36 35.387Z" fill="white"/>
<path d="M355.102 35.387H402.573C406.107 35.387 408.907 37.4529 408.907 39.9186V86.768C408.907 89.3004 406.04 91.2997 402.573 91.2997H355.102C351.568 91.2997 348.768 89.2338 348.768 86.768V39.9186C348.701 37.3862 351.568 35.387 355.102 35.387Z" fill="white"/>
<path d="M445.044 35.387H492.516C496.049 35.387 498.85 37.4529 498.85 39.9186V86.768C498.85 89.3004 495.983 91.2997 492.516 91.2997H445.044C441.511 91.2997 438.71 89.2338 438.71 86.768V39.9186C438.644 37.3862 441.511 35.387 445.044 35.387Z" fill="white"/>
<path d="M534.12 35.387H581.591C585.125 35.387 587.925 37.4529 587.925 39.9186V86.768C587.925 89.3004 585.058 91.2997 581.591 91.2997H534.12C530.586 91.2997 527.786 89.2338 527.786 86.768V39.9186C527.719 37.3862 530.586 35.387 534.12 35.387Z" fill="white"/>
<path d="M41.6708 103.762H89.1422C92.6759 103.762 95.4761 105.828 95.4761 108.293V155.143C95.4761 157.675 92.6092 159.674 89.1422 159.674H41.6708C38.1371 159.674 35.3368 157.609 35.3368 155.143V108.293C35.2702 105.761 38.1371 103.762 41.6708 103.762Z" fill="white"/>
<path d="M130.079 103.762H177.551C181.085 103.762 183.885 105.828 183.885 108.293V155.143C183.885 157.675 181.018 159.674 177.551 159.674H130.079C126.546 159.674 123.746 157.609 123.746 155.143V108.293C123.679 105.761 126.546 103.762 130.079 103.762Z" fill="white"/>
<path d="M219.689 103.762H267.16C270.694 103.762 273.494 105.828 273.494 108.293V155.143C273.494 157.675 270.627 159.674 267.16 159.674H219.689C216.155 159.674 213.355 157.609 213.355 155.143V108.293C213.288 105.761 216.155 103.762 219.689 103.762Z" fill="white"/>
<path d="M308.764 103.762H356.235C359.769 103.762 362.569 105.828 362.569 108.293V155.143C362.569 157.675 359.702 159.674 356.235 159.674H308.764C305.23 159.674 302.43 157.609 302.43 155.143V108.293C302.363 105.761 305.23 103.762 308.764 103.762Z" fill="white"/>
<path d="M398.706 103.762H446.178C449.711 103.762 452.512 105.828 452.512 108.293V155.143C452.512 157.675 449.645 159.674 446.178 159.674H398.706C395.173 159.674 392.372 157.609 392.372 155.143V108.293C392.306 105.761 395.173 103.762 398.706 103.762Z" fill="white"/>
<path d="M488.449 103.762H535.92C539.454 103.762 542.254 105.828 542.254 108.293V155.143C542.254 157.675 539.387 159.674 535.92 159.674H488.449C484.915 159.674 482.115 157.609 482.115 155.143V108.293C482.048 105.761 484.915 103.762 488.449 103.762Z" fill="white"/>
<path d="M577.391 103.762H624.862C628.396 103.762 631.196 105.828 631.196 108.293V155.143C631.196 157.675 628.329 159.674 624.862 159.674H577.391C573.857 159.674 571.057 157.609 571.057 155.143V108.293C571.057 105.761 573.924 103.762 577.391 103.762Z" fill="white"/>
<path d="M118.012 49.4484H106.677C102.077 49.4484 98.3433 53.1803 98.3433 57.7786V69.1078C98.3433 73.7061 102.077 77.438 106.677 77.438H118.012C122.612 77.438 126.346 73.7061 126.346 69.1078V57.7786C126.346 53.1803 122.612 49.4484 118.012 49.4484ZM123.546 69.1078C123.546 72.1733 121.079 74.6391 118.012 74.6391H106.677C103.61 74.6391 101.144 72.1733 101.144 69.1078V57.7786C101.144 54.7131 103.61 52.2473 106.677 52.2473H118.012C121.079 52.2473 123.546 54.7131 123.546 57.7786V69.1078Z" fill="url(#paint0_linear_176_95438)"/>
<path d="M112.345 56.2458C108.344 56.2458 105.144 59.5113 105.144 63.4432C105.144 67.3751 108.411 70.6405 112.345 70.6405C116.278 70.6405 119.545 67.3751 119.545 63.4432C119.545 59.5113 116.345 56.2458 112.345 56.2458ZM112.345 67.8416C109.878 67.8416 107.944 65.8423 107.944 63.4432C107.944 61.0441 109.945 59.0448 112.345 59.0448C114.812 59.0448 116.745 61.0441 116.745 63.4432C116.745 65.9089 114.812 67.8416 112.345 67.8416Z" fill="url(#paint1_linear_176_95438)"/>
<path d="M119.612 57.9786C120.569 57.9786 121.345 57.2028 121.345 56.2459C121.345 55.2889 120.569 54.5132 119.612 54.5132C118.655 54.5132 117.878 55.2889 117.878 56.2459C117.878 57.2028 118.655 57.9786 119.612 57.9786Z" fill="url(#paint2_linear_176_95438)"/>
<path d="M191.619 49.715C196.22 48.9153 200.487 52.0474 201.287 56.5125C202.087 60.9775 198.953 65.3758 194.486 66.1756C189.886 66.9753 185.619 63.8431 184.818 59.3781C184.618 58.2451 184.685 57.1122 184.952 56.046C185.619 52.7805 188.352 50.3147 191.619 49.715Z" fill="#4285F4"/>
<path d="M212.488 55.2462C213.621 54.913 214.755 55.5794 215.021 56.5791C215.355 57.712 214.688 58.8449 213.688 59.1115C212.554 59.4447 211.421 58.7783 211.154 57.7786C211.021 57.5787 211.021 57.2455 211.021 57.0456C211.088 56.2459 211.688 55.5128 212.488 55.2462Z" fill="#34A853"/>
<path d="M205.754 58.0453C208.021 57.4455 210.221 58.7783 210.821 60.9109C211.355 62.6436 210.621 64.4429 209.088 65.5092C207.154 66.7088 204.621 66.2423 203.42 64.3096C202.22 62.377 202.687 59.8446 204.621 58.6451C204.954 58.3785 205.354 58.1786 205.754 58.0453Z" fill="#EA4335"/>
<path d="M205.954 67.7083C208.621 67.1752 211.154 68.8412 211.621 71.4403C212.154 74.106 210.488 76.6384 207.887 77.1049C205.22 77.638 202.687 75.9719 202.22 73.3729C202.22 73.2396 202.22 73.173 202.087 73.0397C201.82 70.5739 203.42 68.2415 205.954 67.7083Z" fill="#FBBC05"/>
<path d="M292.363 52.9138C293.029 54.5132 293.496 56.1793 293.496 57.8453C293.496 64.243 288.229 69.5743 281.761 69.5743C280.095 69.5743 278.361 69.2411 276.828 68.4414C279.561 74.3059 286.495 76.905 292.363 74.1726C298.23 71.4403 300.83 64.5095 298.096 58.645C296.963 56.1793 294.963 54.0467 292.363 52.9138Z" fill="#81BA5D"/>
<path d="M299.23 65.8424C297.897 65.8424 296.83 64.8428 296.83 63.4433C296.83 58.2452 292.629 54.1134 287.495 54.1134C286.162 54.2467 285.029 53.1804 285.029 51.8476C285.029 50.5148 285.962 49.3818 287.295 49.3818C287.429 49.3818 287.495 49.3818 287.629 49.3818C295.43 49.3818 301.697 55.7128 301.697 63.4433C301.564 64.8428 300.43 65.8424 299.23 65.8424Z" fill="#F0AE43"/>
<path d="M287.495 77.5714C286.162 77.7047 285.029 76.6384 285.029 75.3056C285.029 73.9728 285.962 72.8398 287.295 72.8398C287.429 72.8398 287.495 72.8398 287.629 72.8398C292.829 72.8398 296.963 68.6414 296.963 63.51C296.963 62.1771 297.963 61.1108 299.363 61.1108C300.697 61.1108 301.764 62.1105 301.764 63.51C301.564 71.3071 295.296 77.5714 287.495 77.5714Z" fill="#1E4E71"/>
<path d="M279.161 74.2393C278.495 74.2393 277.894 74.0394 277.494 73.5729C271.961 68.0416 271.961 59.1782 277.494 53.6469C278.428 52.7139 279.961 52.7139 280.895 53.6469C281.828 54.5799 281.828 56.1126 280.895 57.0456C277.294 60.6443 277.294 66.6421 280.895 70.374C281.828 71.307 281.828 72.8398 280.895 73.7728C280.361 73.9727 279.828 74.2393 279.161 74.2393Z" fill="#F04F6B"/>
<path d="M279.161 57.5122C277.828 57.5122 276.761 56.3792 276.761 55.113C276.761 54.4466 276.961 53.8468 277.428 53.447C280.028 50.7147 283.628 49.2485 287.362 49.2485C288.696 49.3818 289.629 50.5147 289.629 51.7143C289.496 52.8472 288.629 53.8468 287.362 53.9801C284.895 53.9801 282.495 54.9798 280.695 56.7124C280.361 57.3122 279.828 57.5122 279.161 57.5122Z" fill="#C650D2"/>
<path d="M287.495 77.5715C283.762 77.5715 280.161 76.1053 277.561 73.373C276.628 72.44 276.628 70.9073 277.561 69.9743C278.495 69.0413 280.028 69.0413 280.961 69.9743C282.762 71.7736 285.162 72.7066 287.629 72.7066C288.962 72.8399 289.896 73.9728 289.896 75.1724C289.629 76.5718 288.696 77.5048 287.495 77.5715Z" fill="#52BBE6"/>
<path d="M553.188 64.443V56.4459H549.721C548.721 56.4459 547.854 57.3123 547.854 58.3119V74.8391C547.854 75.6388 548.855 76.1053 549.455 75.5056L553.322 71.6403H564.256C565.256 71.6403 566.123 70.774 566.123 69.7743V66.309H555.122C554.055 66.309 553.188 65.4426 553.188 64.443Z" fill="#00AC47"/>
<path d="M569.59 51.1812H555.055C554.055 51.1812 553.188 52.0475 553.188 53.0471V56.4459H564.189C565.189 56.4459 566.056 57.3122 566.056 58.3119V66.3089H569.523C570.523 66.3089 571.39 65.4426 571.39 64.4429V52.9805C571.457 51.9809 570.59 51.1812 569.59 51.1812Z" fill="#5BB974"/>
<path d="M564.189 56.4459H553.188V64.443C553.188 65.4426 554.055 66.309 555.055 66.309H566.056V58.3119C566.056 57.2456 565.256 56.4459 564.189 56.4459Z" fill="#00832D"/>
<path d="M379.038 78.1045C387.139 78.1045 393.706 71.5404 393.706 63.4432C393.706 55.346 387.139 48.782 379.038 48.782C370.937 48.782 364.37 55.346 364.37 63.4432C364.37 71.5404 370.937 78.1045 379.038 78.1045Z" fill="url(#paint3_linear_176_95438)"/>
<path d="M386.639 56.2459L384.105 69.1079C383.905 69.5744 383.305 69.7743 382.838 69.7076H382.705L376.904 65.176L374.771 64.1764L371.104 62.9102C371.104 62.9102 370.504 62.7102 370.504 62.3104C370.504 61.9772 371.104 61.644 371.104 61.644L385.372 56.046C385.505 55.9127 386.639 55.313 386.639 56.2459Z" fill="white"/>
<path d="M376.371 69.2411C376.371 69.2411 376.238 69.2411 376.038 68.5081C375.771 67.775 374.771 64.1763 374.771 64.1763L383.705 58.5117C383.705 58.5117 384.172 58.1785 384.172 58.5117C384.172 58.5117 384.305 58.5117 383.905 58.845C383.505 59.1782 376.971 65.1759 376.971 65.1759" fill="#D2E5F1"/>
<path d="M379.238 66.9752L376.904 69.2411C376.771 69.3743 376.638 69.3743 376.571 69.2411L377.038 65.1093" fill="#B5CFE4"/>
<path d="M165.817 134.417V134.55V134.35V134.417C166.35 132.018 166.017 129.619 165.083 127.42C163.816 124.487 161.416 122.088 158.549 120.889C156.282 119.956 153.882 119.623 151.482 120.156L151.615 120.289H151.415H151.549C148.015 118.423 143.548 119.756 141.681 123.288C141.148 124.354 140.881 125.487 140.881 126.62C140.881 127.886 141.214 129.019 141.814 130.152V130.019V130.219C141.814 130.219 141.814 130.085 141.681 130.085C141.548 130.818 141.481 131.418 141.481 132.151C141.481 133.817 141.814 135.35 142.414 136.949C143.014 138.416 143.881 139.748 145.015 140.881C146.148 142.014 147.482 142.881 148.948 143.48C151.149 144.413 153.549 144.613 155.949 144.213L155.816 144.08H156.016H155.882C158.683 145.613 162.35 145.213 164.617 142.947C166.95 140.748 167.484 137.216 165.817 134.417ZM153.815 139.682C149.415 139.682 147.482 137.483 147.482 135.95C147.482 135.217 148.082 134.617 148.815 134.484H148.948C150.815 134.484 150.282 137.216 153.815 137.216C155.616 137.216 156.616 136.283 156.616 135.217C156.616 134.617 156.282 133.951 155.149 133.684L151.282 132.751C148.148 131.951 147.615 130.285 147.615 128.686C147.615 125.354 150.749 124.088 153.615 124.088C156.349 124.088 159.416 125.554 159.416 127.486C159.416 128.286 158.683 128.819 157.949 128.819H157.816C156.282 128.819 156.549 126.62 153.349 126.62C151.815 126.62 150.882 127.353 150.882 128.419C150.882 129.486 152.149 129.752 153.149 129.952L156.082 130.552C159.216 131.285 160.016 133.018 160.016 134.817C159.949 137.749 158.016 139.682 153.815 139.682ZM155.816 144.147L155.949 144.28H156.082L155.816 144.147ZM165.817 134.484V134.35L165.683 134.217L165.817 134.484ZM141.681 129.952V130.085L141.814 130.219L141.681 129.952ZM151.549 120.156L151.415 120.022H151.282L151.549 120.156Z" fill="#00AFF0"/>
<path fill-rule="evenodd" clip-rule="evenodd" d="M337.3 129.552C337.3 130.618 336.9 131.618 336.1 132.418C334.633 133.684 332.3 133.617 331.033 132.151C330.633 131.685 330.366 131.085 330.166 130.485C330.1 129.419 330.366 128.419 330.966 127.486L333.233 124.621L334.633 123.021L335.833 121.622C335.833 121.622 336.3 120.955 336.5 120.755L336.567 120.689C336.633 120.689 336.633 120.689 336.767 120.689C336.9 120.689 336.834 120.755 336.967 120.755V120.822C336.967 121.022 336.967 121.888 336.967 121.888V123.754L337.034 125.82L337.3 129.552ZM340.301 121.822C345.834 125.887 347.035 133.617 343.101 139.149C339.1 144.68 331.3 145.879 325.766 141.948C320.232 137.882 319.032 130.152 322.965 124.621C325.366 121.355 329.233 119.356 333.367 119.489L331.7 121.488C328.499 121.955 325.832 124.287 324.766 127.353C323.299 132.284 326.166 137.483 331.033 138.949C335.7 140.348 340.634 137.882 342.367 133.284C343.367 130.219 342.634 126.82 340.501 124.487L340.301 121.822Z" fill="#1875F0"/>
<path d="M251.425 143.547H255.959L244.958 120.422H241.557L230.756 143.214H235.09L236.557 140.082H246.958L245.558 136.816H238.09L243.224 125.687L251.425 143.547Z" fill="#EC1B2E"/>
<path d="M431.643 128.952C431.843 129.152 432.11 129.352 432.376 129.486C432.977 129.752 433.577 129.752 434.177 129.486C434.71 129.219 435.177 128.819 435.443 128.219C435.71 127.62 435.71 127.02 435.443 126.42C435.177 125.887 434.777 125.42 434.177 125.154C433.577 124.887 432.977 124.887 432.376 125.154C431.843 125.42 431.376 125.82 431.11 126.42C430.843 127.02 430.843 127.62 431.11 128.219C431.243 128.486 431.443 128.752 431.643 128.952ZM430.976 131.085V138.082H432.176C432.576 138.082 432.977 138.016 433.377 137.949C433.777 137.882 434.177 137.749 434.51 137.549C434.843 137.349 435.11 137.083 435.377 136.816C435.577 136.483 435.71 136.083 435.71 135.683V131.085H430.976ZM427.176 128.153C427.509 128.153 427.776 128.086 428.109 127.953C428.643 127.686 429.109 127.286 429.376 126.687C429.643 126.087 429.643 125.487 429.376 124.887C429.109 124.354 428.709 123.888 428.109 123.621C427.843 123.488 427.509 123.421 427.176 123.421C426.843 123.421 426.576 123.488 426.309 123.621C426.109 123.688 426.042 123.821 425.709 123.954V127.553C425.976 127.686 426.043 127.819 426.309 127.886C426.509 128.086 426.843 128.153 427.176 128.153ZM425.709 139.948C425.976 140.015 426.109 140.082 426.309 140.082C426.509 140.082 426.776 140.148 426.976 140.148C427.309 140.148 427.709 140.082 428.043 140.015C428.376 139.948 428.709 139.815 429.043 139.615C429.376 139.415 429.576 139.149 429.776 138.882C429.976 138.549 430.11 138.149 430.043 137.749V129.619H425.642L425.709 139.948ZM409.641 142.214L424.842 144.813V119.089L409.641 121.688V142.214Z" fill="#5558AF"/>
<path d="M469.647 49.1152C461.713 49.1152 455.312 55.5129 455.312 63.4433C455.312 71.3737 461.713 77.7713 469.647 77.7713C477.581 77.7713 483.982 71.3737 483.982 63.4433C483.982 55.5129 477.581 49.1152 469.647 49.1152ZM467.313 77.5714V74.7058C467.313 73.6395 466.646 72.7732 465.78 72.44C460.779 70.3074 458.512 64.5762 460.646 59.6447C462.779 54.6465 468.513 52.3807 473.447 54.5132C477.047 56.046 479.448 59.578 479.381 63.5099C479.381 69.7743 474.514 75.7721 467.313 77.5714Z" fill="#00CAFF"/>
<path fill-rule="evenodd" clip-rule="evenodd" d="M499.45 131.485C499.45 135.483 501.317 139.082 504.184 141.414V146.279L508.517 143.68C509.651 144.013 510.918 144.213 512.184 144.213C519.252 144.213 524.986 138.482 524.986 131.485C524.986 124.421 519.252 118.756 512.184 118.756C505.184 118.756 499.45 124.487 499.45 131.485ZM520.585 127.953L513.584 135.883L510.251 132.218L503.85 135.95L510.851 128.019L514.185 131.685L520.585 127.953Z" fill="#1372FF"/>
<path fill-rule="evenodd" clip-rule="evenodd" d="M615.995 131.951C615.995 140.082 609.394 146.679 601.26 146.679C593.126 146.679 586.525 140.082 586.525 131.951C586.525 123.821 593.126 117.223 601.26 117.223C609.394 117.29 615.995 123.888 615.995 131.951Z" fill="white"/>
<path fill-rule="evenodd" clip-rule="evenodd" d="M615.995 131.951C615.995 140.082 609.394 146.679 601.26 146.679C593.126 146.679 586.525 140.082 586.525 131.951C586.525 123.821 593.126 117.223 601.26 117.223C609.394 117.29 615.995 123.888 615.995 131.951Z" fill="white"/>
<path d="M598.393 121.555C597.259 121.555 596.326 122.488 596.326 123.621C596.326 124.754 597.259 125.687 598.393 125.687H600.46V123.621C600.46 122.488 599.526 121.555 598.393 121.555ZM598.393 127.086H592.859C591.725 127.086 590.792 128.019 590.792 129.152C590.792 130.285 591.725 131.218 592.859 131.218H598.393C599.526 131.218 600.46 130.285 600.46 129.152C600.46 128.019 599.526 127.086 598.393 127.086Z" fill="#36C5F0"/>
<path d="M611.527 129.152C611.527 128.019 610.594 127.086 609.461 127.086C608.327 127.086 607.394 128.019 607.394 129.152V131.218H609.461C610.594 131.218 611.527 130.285 611.527 129.152ZM605.994 129.152V123.621C605.994 122.488 605.06 121.555 603.927 121.555C602.793 121.555 601.86 122.488 601.86 123.621V129.152C601.86 130.285 602.793 131.218 603.927 131.218C605.06 131.218 605.994 130.285 605.994 129.152Z" fill="#2EB67D"/>
<path d="M603.927 142.214C605.06 142.214 605.994 141.281 605.994 140.148C605.994 139.015 605.06 138.082 603.927 138.082H601.86V140.148C601.86 141.281 602.793 142.214 603.927 142.214ZM603.927 136.75H609.461C610.594 136.75 611.527 135.817 611.527 134.684C611.527 133.551 610.594 132.618 609.461 132.618H603.927C602.793 132.618 601.86 133.551 601.86 134.684C601.86 135.817 602.793 136.75 603.927 136.75Z" fill="#ECB22E"/>
<path d="M590.859 134.617C590.859 135.75 591.792 136.683 592.925 136.683C594.059 136.683 594.992 135.75 594.992 134.617V132.551H592.925C591.725 132.551 590.792 133.484 590.859 134.617ZM596.326 134.617V140.148C596.326 141.281 597.259 142.214 598.393 142.214C599.526 142.214 600.46 141.281 600.46 140.148V134.617C600.46 133.484 599.526 132.551 598.393 132.551C597.259 132.551 596.326 133.484 596.326 134.617C596.326 134.617 596.326 134.684 596.326 134.617Z" fill="#E01E5A"/>
<path d="M64.2067 143.614C62.0731 143.614 60.0063 143.014 58.2061 141.948L57.806 141.681L53.3389 142.881L54.539 138.549L54.2724 138.082C53.0722 136.216 52.4722 134.017 52.4722 131.818C52.4722 125.354 57.7394 120.089 64.2067 120.089C67.3403 120.089 70.2739 121.289 72.5408 123.554C74.7411 125.754 76.0078 128.752 76.0078 131.885C75.9412 138.349 70.674 143.614 64.2067 143.614Z" fill="#009846"/>
<path d="M74.2076 121.888C71.5406 119.223 68.0069 117.756 64.2066 117.756C56.4058 117.756 50.0718 124.087 50.0718 131.885C50.0718 134.35 50.7386 136.816 51.9387 138.949L49.9385 146.279L57.4726 144.28C59.5394 145.413 61.873 146.013 64.2066 146.013C72.0073 146.013 78.3413 139.682 78.3413 131.885C78.3413 128.086 76.8745 124.554 74.2076 121.888ZM64.2066 143.614C62.073 143.614 60.0061 143.014 58.206 141.948L57.8059 141.681L53.3388 142.881L54.5389 138.549L54.2722 138.082C53.0721 136.216 52.4721 134.017 52.4721 131.818C52.4721 125.354 57.7393 120.089 64.2066 120.089C67.3402 120.089 70.2738 121.288 72.5407 123.554C74.7409 125.754 76.0077 128.752 76.0077 131.885C75.9411 138.349 70.6739 143.614 64.2066 143.614ZM70.6072 134.817C70.2738 134.617 68.5403 133.817 68.207 133.684C67.8736 133.551 67.6736 133.484 67.4069 133.884C67.1402 134.217 66.4735 135.017 66.2734 135.283C66.0734 135.55 65.8734 135.55 65.54 135.35C65.2067 135.15 64.0732 134.817 62.6731 133.617C61.6063 132.684 60.9396 131.551 60.6729 131.152C60.4729 130.818 60.6729 130.618 60.8062 130.418C60.9396 130.285 61.1396 130.019 61.3396 129.819C61.5396 129.619 61.6063 129.485 61.673 129.219C61.8063 128.952 61.7396 128.752 61.673 128.619C61.6063 128.419 60.8729 126.687 60.6062 126.02C60.3395 125.354 60.0061 125.42 59.8061 125.42C59.6061 125.42 59.3394 125.42 59.1394 125.42C58.8727 125.42 58.5393 125.487 58.206 125.887C57.8726 126.22 56.9392 127.086 56.9392 128.819C56.9392 130.552 58.206 132.218 58.406 132.484C58.606 132.751 60.8729 136.283 64.4733 137.816C65.34 138.149 66.0067 138.416 66.4735 138.549C67.3402 138.815 68.0736 138.749 68.6737 138.682C69.3404 138.549 70.7405 137.816 71.0739 137.016C71.3406 136.216 71.3406 135.483 71.2739 135.35C71.2073 135.083 71.0072 135.017 70.6072 134.817Z" fill="white"/>
<path fill-rule="evenodd" clip-rule="evenodd" d="M74.6075 430.641C73.274 430.641 72.1406 431.174 71.2738 431.841V430.774H68.2069V442.703H71.4072V435.039C71.8739 434.373 72.9407 433.573 74.2741 433.573C74.8075 433.573 75.1409 433.64 75.5409 433.773V430.708C75.2076 430.641 74.9409 430.641 74.6075 430.641ZM46.7381 439.038C47.6048 439.838 48.8049 440.237 50.005 440.237C50.8718 440.237 51.5385 439.771 51.5385 439.304C51.5385 437.505 45.8046 438.105 45.8046 434.306C45.8046 431.974 48.0715 430.574 50.3384 430.574C51.8719 430.574 53.5387 431.174 54.4055 431.774L52.9387 434.106C52.2719 433.64 51.5385 433.24 50.6051 433.24C49.7384 433.24 49.0049 433.573 49.0049 434.173C49.0049 435.706 54.7388 435.039 54.7388 439.304C54.7388 441.637 52.472 443.036 50.005 443.036C48.3382 443.036 46.6714 442.437 45.2712 441.437L46.7381 439.038ZM66.8067 436.572C66.8067 433.24 64.4732 430.441 61.2062 430.441C57.6058 430.441 55.4056 433.373 55.4056 436.639C55.4056 440.437 58.0058 442.837 61.6062 442.837C63.4064 442.837 65.3399 442.037 66.4733 440.637L64.6732 438.838C64.0731 439.504 63.0063 440.237 61.6729 440.237C60.006 440.237 58.6059 439.038 58.4726 437.372H66.74C66.74 437.239 66.8067 436.905 66.8067 436.572ZM58.6059 435.173C58.7392 434.106 59.8727 433.04 61.1395 433.04C62.4729 433.04 63.4064 434.04 63.5397 435.173H58.6059ZM83.1417 438.105L86.4087 430.774H89.6757L84.2084 442.703H82.0082L76.541 430.774H79.8747L83.1417 438.105ZM92.4759 425.11C93.5427 425.11 94.6095 425.976 94.6095 427.176C94.6095 428.375 93.7427 429.242 92.4759 429.242C91.2758 429.242 90.3424 428.375 90.3424 427.176C90.3424 425.976 91.2758 425.11 92.4759 425.11ZM90.8091 430.708H94.0094V442.703H90.8091V430.708ZM107.211 440.171C105.811 442.037 104.077 442.77 101.81 442.77C98.0765 442.77 95.4762 439.971 95.4762 436.572C95.4762 433.04 98.2765 430.374 101.877 430.374C103.944 430.374 105.811 431.307 106.877 432.774L104.61 434.839C103.944 433.973 103.01 433.44 101.877 433.44C100.077 433.44 98.6765 434.906 98.6765 436.705C98.6765 438.571 100.01 439.971 101.944 439.971C103.277 439.971 104.277 439.171 104.81 438.371L107.211 440.171ZM118.812 440.771C117.745 442.17 115.745 442.97 113.945 442.97C110.344 442.97 107.744 440.504 107.744 436.772C107.744 433.44 110.011 430.574 113.545 430.574C116.812 430.574 119.145 433.373 119.145 436.705C119.145 437.039 119.145 437.372 119.079 437.572H110.678C110.811 439.238 112.211 440.437 113.878 440.437C115.212 440.437 116.345 439.638 116.878 439.038L118.812 440.771ZM115.812 435.173C115.745 434.173 114.811 433.04 113.411 433.04C112.078 433.04 111.011 433.973 110.878 435.173H115.812ZM120.345 442.703V430.774H123.412V431.707C124.279 430.908 125.479 430.508 126.746 430.508C128.413 430.508 129.88 431.307 130.88 432.507C131.68 433.373 132.147 434.706 132.147 436.705V442.837H128.946V436.506C128.946 435.306 128.68 434.706 128.213 434.24C127.746 433.773 127.213 433.507 126.413 433.507C125.079 433.507 123.946 434.373 123.546 434.973V442.77H120.345V442.703Z" fill="#293F41"/>
<path fill-rule="evenodd" clip-rule="evenodd" d="M140.347 430.508C136.547 430.508 133.347 433.573 133.347 437.438C133.347 439.504 134.213 441.304 135.547 442.637C136.08 443.17 136.814 443.17 137.347 442.703C138.147 442.037 139.147 441.77 140.347 441.77C141.547 441.77 142.548 442.103 143.348 442.703C143.948 443.17 144.681 443.036 145.148 442.57C146.481 441.304 147.348 439.504 147.348 437.438C147.281 433.64 144.214 430.508 140.347 430.508ZM140.281 440.971C138.214 440.971 136.747 439.438 136.747 437.438C136.747 435.439 138.147 433.906 140.281 433.906C142.414 433.906 143.814 435.506 143.814 437.438C143.814 439.371 142.414 440.971 140.281 440.971Z" fill="#82B6A1"/>
<path fill-rule="evenodd" clip-rule="evenodd" d="M153.615 442.703H151.215L146.481 430.774H149.682L152.282 437.638L154.882 430.774H157.482L160.016 437.638L162.616 430.774H165.816L161.083 442.703H158.682L156.149 435.906L153.615 442.703Z" fill="#293F41"/>
<path d="M214.621 421.045C216.555 419.045 219.222 417.779 222.289 417.779C226.289 417.779 229.756 419.978 231.556 423.31C233.157 422.577 234.957 422.244 236.824 422.244C244.024 422.244 249.825 428.109 249.825 435.373C249.825 442.57 244.024 448.435 236.824 448.435C235.957 448.435 235.09 448.368 234.223 448.168C232.623 451.034 229.556 453.033 225.956 453.033C224.489 453.033 223.089 452.7 221.755 452.1C220.089 455.965 216.288 458.697 211.821 458.697C207.154 458.697 203.22 455.765 201.687 451.633C201.02 451.767 200.353 451.833 199.62 451.833C194.086 451.833 189.619 447.302 189.619 441.704C189.619 437.972 191.619 434.64 194.619 432.907C193.953 431.507 193.686 429.908 193.686 428.309C193.686 421.911 198.886 416.646 205.354 416.646C209.088 416.446 212.488 418.246 214.621 421.045Z" fill="#0F9BD7"/>
<path d="M198.286 438.305C198.22 438.438 198.286 438.438 198.286 438.438C198.42 438.505 198.553 438.571 198.62 438.638C199.287 438.971 199.82 439.105 200.42 439.105C201.62 439.105 202.42 438.438 202.42 437.372C202.42 436.439 201.553 436.039 200.753 435.773L200.62 435.706C199.953 435.506 199.487 435.306 199.487 434.906C199.487 434.573 199.82 434.306 200.287 434.306C200.82 434.306 201.42 434.506 201.82 434.706C201.82 434.706 201.954 434.773 202.02 434.64C202.02 434.573 202.287 433.973 202.287 433.907C202.287 433.84 202.287 433.773 202.22 433.773C201.753 433.507 201.153 433.307 200.42 433.307H200.287C199.153 433.307 198.353 434.04 198.353 434.973C198.353 435.972 199.22 436.306 200.02 436.572L200.153 436.639C200.753 436.839 201.22 436.972 201.22 437.439C201.22 437.838 200.887 438.105 200.353 438.105C200.153 438.105 199.487 438.105 198.753 437.638C198.687 437.572 198.62 437.572 198.553 437.505C198.486 437.505 198.42 437.439 198.353 437.572L198.286 438.305Z" fill="white"/>
<path d="M216.355 438.305C216.288 438.438 216.355 438.438 216.355 438.438C216.488 438.505 216.622 438.571 216.688 438.638C217.355 438.971 217.888 439.105 218.488 439.105C219.689 439.105 220.489 438.438 220.489 437.372C220.489 436.439 219.622 436.039 218.822 435.773L218.688 435.706C218.022 435.506 217.555 435.306 217.555 434.906C217.555 434.573 217.888 434.306 218.355 434.306C218.888 434.306 219.488 434.506 219.889 434.706C219.889 434.706 220.022 434.773 220.089 434.64C220.089 434.573 220.355 433.973 220.355 433.907C220.355 433.84 220.355 433.773 220.289 433.773C219.822 433.507 219.222 433.307 218.488 433.307H218.355C217.222 433.307 216.422 434.04 216.422 434.973C216.422 435.972 217.288 436.306 218.088 436.572L218.222 436.639C218.822 436.839 219.288 436.972 219.288 437.439C219.288 437.838 218.955 438.105 218.422 438.105C218.222 438.105 217.555 438.105 216.822 437.638C216.755 437.572 216.688 437.572 216.622 437.505C216.622 437.505 216.488 437.439 216.422 437.572V438.305H216.355Z" fill="white"/>
<path d="M229.69 435.106C229.556 434.773 229.423 434.44 229.223 434.24C229.023 433.973 228.756 433.773 228.423 433.64C228.089 433.507 227.689 433.44 227.356 433.44C226.889 433.44 226.556 433.507 226.289 433.64C225.956 433.773 225.689 433.973 225.489 434.24C225.289 434.506 225.089 434.84 225.023 435.106C224.889 435.439 224.889 435.839 224.889 436.172C224.889 436.506 224.956 436.972 225.023 437.239C225.156 437.572 225.289 437.905 225.489 438.105C225.689 438.372 225.956 438.571 226.289 438.705C226.623 438.838 227.023 438.905 227.356 438.905C227.689 438.905 228.156 438.838 228.423 438.705C228.756 438.571 229.023 438.372 229.223 438.105C229.423 437.838 229.623 437.505 229.69 437.239C229.823 436.905 229.823 436.506 229.823 436.172C229.823 435.839 229.823 435.439 229.69 435.106ZM228.69 436.239C228.69 436.839 228.556 437.305 228.356 437.639C228.156 437.972 227.823 438.172 227.356 438.172C226.889 438.172 226.556 437.972 226.356 437.639C226.156 437.305 226.023 436.772 226.023 436.239C226.023 435.706 226.156 435.173 226.356 434.84C226.556 434.506 226.889 434.306 227.356 434.306C227.823 434.306 228.156 434.44 228.356 434.84C228.556 435.106 228.69 435.639 228.69 436.239Z" fill="white"/>
<path fill-rule="evenodd" clip-rule="evenodd" d="M238.157 437.972C238.091 437.838 238.024 437.905 238.024 437.905C237.89 437.972 237.69 438.038 237.557 438.038C237.357 438.038 237.157 438.105 236.957 438.105C236.424 438.105 236.09 437.972 235.824 437.638C235.557 437.305 235.357 436.839 235.357 436.239C235.357 435.639 235.49 435.239 235.757 434.906C236.024 434.573 236.424 434.373 236.89 434.373C237.357 434.373 237.69 434.44 237.957 434.506C237.957 434.506 238.024 434.573 238.091 434.44C238.157 434.173 238.224 433.973 238.357 433.707C238.357 433.64 238.291 433.573 238.291 433.573C238.157 433.507 237.824 433.44 237.557 433.373C237.357 433.307 237.024 433.307 236.757 433.307C236.29 433.307 235.89 433.373 235.624 433.507C235.29 433.64 235.024 433.84 234.757 434.106C234.557 434.373 234.357 434.706 234.223 434.973C234.09 435.306 234.023 435.706 234.023 436.039C234.023 436.905 234.29 437.572 234.757 438.105C235.224 438.638 235.89 438.905 236.824 438.905C237.357 438.905 237.89 438.771 238.291 438.638C238.291 438.638 238.357 438.571 238.357 438.505L238.157 437.972Z" fill="white"/>
<path fill-rule="evenodd" clip-rule="evenodd" d="M243.424 434.906C243.358 434.573 243.091 434.24 242.957 434.04C242.757 433.773 242.491 433.64 242.291 433.507C242.024 433.373 241.624 433.307 241.291 433.307C240.824 433.307 240.424 433.373 240.157 433.507C239.824 433.64 239.557 433.907 239.357 434.173C239.157 434.44 238.957 434.773 238.89 435.039C238.757 435.373 238.757 435.773 238.757 436.106C238.757 436.439 238.824 436.905 238.89 437.172C239.024 437.505 239.157 437.838 239.424 438.038C239.691 438.238 239.957 438.505 240.291 438.638C240.624 438.771 241.091 438.838 241.557 438.838C242.557 438.838 243.091 438.571 243.291 438.505C243.358 438.505 243.358 438.438 243.291 438.305L243.024 437.638C242.957 437.572 242.891 437.572 242.891 437.572C242.624 437.638 242.291 437.838 241.491 437.838C240.957 437.838 240.557 437.705 240.291 437.439C240.024 437.172 239.891 436.772 239.891 436.306H243.358C243.358 436.306 243.424 436.306 243.491 436.239C243.558 436.439 243.624 435.706 243.424 434.906ZM239.957 435.639C240.024 435.306 240.091 435.039 240.224 434.773C240.424 434.44 240.757 434.24 241.224 434.24C241.757 434.24 242.024 434.44 242.157 434.773C242.291 434.973 242.357 435.306 242.424 435.639H239.957Z" fill="white"/>
<path fill-rule="evenodd" clip-rule="evenodd" d="M215.488 434.906C215.422 434.573 215.155 434.24 215.021 434.04C214.821 433.773 214.555 433.64 214.355 433.507C214.088 433.373 213.688 433.307 213.355 433.307C212.888 433.307 212.488 433.373 212.221 433.507C211.888 433.64 211.621 433.907 211.421 434.173C211.221 434.44 211.021 434.773 210.954 435.039C210.821 435.373 210.821 435.773 210.821 436.106C210.821 436.439 210.888 436.905 210.954 437.172C211.088 437.505 211.221 437.838 211.488 438.038C211.754 438.238 212.021 438.505 212.355 438.638C212.688 438.771 213.155 438.838 213.621 438.838C214.621 438.838 215.155 438.571 215.355 438.505C215.421 438.505 215.421 438.438 215.355 438.305L215.088 437.638C215.021 437.572 214.955 437.572 214.955 437.572C214.688 437.638 214.355 437.838 213.555 437.838C213.021 437.838 212.621 437.705 212.355 437.439C212.088 437.172 211.954 436.772 211.954 436.306H215.421C215.421 436.306 215.488 436.306 215.555 436.239C215.622 436.439 215.755 435.706 215.488 434.906ZM212.021 435.639C212.088 435.306 212.154 435.039 212.288 434.773C212.488 434.44 212.821 434.24 213.288 434.24C213.755 434.24 214.088 434.44 214.221 434.773C214.355 434.973 214.421 435.306 214.488 435.639H212.021Z" fill="white"/>
<path d="M205.954 435.439C205.821 435.439 205.62 435.439 205.42 435.439C205.087 435.439 204.82 435.506 204.554 435.573C204.287 435.639 204.02 435.772 203.82 435.906C203.62 436.039 203.42 436.239 203.287 436.506C203.154 436.772 203.087 437.039 203.087 437.305C203.087 437.638 203.154 437.905 203.22 438.105C203.354 438.305 203.487 438.505 203.687 438.638C203.887 438.771 204.154 438.905 204.42 438.971C204.687 439.038 205.02 439.038 205.287 439.038C205.687 439.038 206.021 439.038 206.287 438.971C206.621 438.905 207.087 438.838 207.154 438.771C207.287 438.771 207.421 438.705 207.421 438.705C207.487 438.705 207.487 438.571 207.487 438.571V435.373C207.487 434.64 207.287 434.173 206.887 433.84C206.487 433.507 206.021 433.307 205.287 433.307C205.02 433.307 204.554 433.373 204.354 433.373C204.354 433.373 203.554 433.507 203.287 433.773C203.287 433.773 203.22 433.84 203.287 433.907L203.554 434.573C203.554 434.64 203.687 434.64 203.687 434.64C203.687 434.64 203.687 434.64 203.754 434.64C204.42 434.24 205.287 434.24 205.287 434.24C205.687 434.24 205.954 434.306 206.154 434.506C206.354 434.64 206.421 434.906 206.421 435.373V435.506C206.221 435.506 205.954 435.439 205.954 435.439ZM204.554 437.972C204.42 437.838 204.42 437.838 204.354 437.772C204.287 437.639 204.22 437.505 204.22 437.305C204.22 436.972 204.354 436.772 204.554 436.572C204.554 436.572 204.887 436.306 205.554 436.306C206.087 436.306 206.487 436.372 206.487 436.372V437.972C206.487 437.972 206.021 438.038 205.554 438.105C204.82 438.172 204.554 437.972 204.554 437.972Z" fill="white"/>
<path fill-rule="evenodd" clip-rule="evenodd" d="M234.023 433.707C234.023 433.64 234.023 433.573 233.957 433.573C233.89 433.573 233.557 433.507 233.357 433.44C232.89 433.44 232.623 433.507 232.49 433.573C232.29 433.707 232.023 433.84 231.89 434.04V433.573C231.89 433.507 231.823 433.44 231.756 433.44H230.89C230.823 433.44 230.756 433.507 230.756 433.573V438.771C230.756 438.838 230.823 438.905 230.89 438.905H231.756C231.823 438.905 231.89 438.838 231.89 438.771V436.172C231.89 435.839 231.956 435.439 232.023 435.306C232.09 435.106 232.223 434.906 232.357 434.773C232.49 434.64 232.623 434.573 232.823 434.506C233.023 434.44 233.157 434.44 233.29 434.44C233.49 434.44 233.69 434.506 233.69 434.506C233.757 434.506 233.823 434.44 233.823 434.44C233.823 434.24 234.023 433.773 234.023 433.707Z" fill="white"/>
<path fill-rule="evenodd" clip-rule="evenodd" d="M225.422 431.307C225.289 431.241 225.222 431.241 225.089 431.241C224.956 431.241 224.756 431.174 224.622 431.174C223.956 431.174 223.489 431.374 223.156 431.707C222.822 432.041 222.556 432.574 222.422 433.307L222.356 433.573H221.555C221.555 433.573 221.422 433.573 221.422 433.707L221.289 434.44C221.289 434.506 221.289 434.573 221.422 434.573H222.222L221.422 438.905C221.355 439.238 221.289 439.571 221.222 439.771C221.155 439.971 221.089 440.171 220.955 440.304C220.889 440.437 220.755 440.504 220.622 440.571C220.489 440.637 220.355 440.637 220.222 440.637C220.155 440.637 220.022 440.637 219.955 440.637C219.889 440.637 219.822 440.571 219.755 440.571C219.755 440.571 219.689 440.504 219.622 440.637C219.622 440.704 219.355 441.304 219.355 441.37C219.355 441.437 219.355 441.504 219.422 441.504C219.555 441.57 219.622 441.57 219.755 441.57C219.955 441.637 220.155 441.637 220.289 441.637C220.622 441.637 220.955 441.57 221.155 441.504C221.422 441.437 221.622 441.237 221.822 441.037C222.022 440.837 222.155 440.571 222.289 440.237C222.422 439.904 222.489 439.504 222.622 439.105L223.422 434.706H224.556C224.556 434.706 224.689 434.706 224.689 434.573L224.822 433.84C224.822 433.773 224.822 433.707 224.689 433.707H223.622C223.622 433.707 223.689 433.307 223.822 432.907C223.889 432.774 223.956 432.64 224.089 432.507C224.156 432.44 224.289 432.374 224.422 432.307C224.556 432.24 224.689 432.24 224.822 432.24C224.956 432.24 225.022 432.24 225.089 432.24C225.222 432.24 225.222 432.307 225.289 432.307C225.422 432.374 225.422 432.307 225.422 432.24L225.689 431.507C225.556 431.307 225.489 431.307 225.422 431.307Z" fill="white"/>
<path fill-rule="evenodd" clip-rule="evenodd" d="M209.888 438.771C209.888 438.838 209.821 438.905 209.754 438.905H208.887C208.821 438.905 208.754 438.838 208.754 438.771V431.307C208.754 431.241 208.821 431.174 208.887 431.174H209.754C209.821 431.174 209.888 431.241 209.888 431.307V438.771Z" fill="white"/>
<path fill-rule="evenodd" clip-rule="evenodd" d="M303.63 429.042C307.897 429.108 311.231 432.64 311.231 436.905V444.103C311.231 444.503 310.898 444.836 310.498 444.836H307.897C307.497 444.836 307.164 444.503 307.164 444.103V436.839C307.164 433.373 304.497 432.974 303.297 432.974C302.163 432.974 299.43 433.373 299.43 436.839V444.103C299.43 444.503 299.097 444.836 298.696 444.836H296.096C295.696 444.836 295.363 444.503 295.363 444.103V436.839C295.629 432.107 298.83 428.975 303.63 429.042ZM317.965 437.039V437.172C317.965 440.837 320.699 441.437 322.365 441.437C324.032 441.437 326.766 440.837 326.766 437.172C326.766 433.507 324.032 432.907 322.365 432.907C320.765 432.974 318.032 433.507 317.965 437.039ZM322.365 445.302C317.365 445.302 314.031 442.037 314.031 437.172V423.977C314.031 423.577 314.365 423.244 314.765 423.244H316.165C317.165 423.244 318.032 424.11 318.032 425.11V430.041C319.232 429.308 320.765 429.042 322.432 429.042C327.433 429.042 330.766 432.307 330.766 437.172C330.7 442.037 327.366 445.302 322.365 445.302ZM347.901 445.302C343.634 445.236 340.301 441.704 340.301 437.439V430.241C340.301 429.841 340.634 429.508 341.034 429.508H343.634C344.034 429.508 344.368 429.841 344.368 430.241V437.505C344.368 440.971 347.035 441.37 348.235 441.37C349.368 441.37 352.102 440.971 352.102 437.505V430.241C352.102 429.841 352.435 429.508 352.835 429.508H355.435C355.835 429.508 356.169 429.841 356.169 430.241V437.505C355.902 442.237 352.702 445.436 347.901 445.302ZM336.834 444.769H334.233C333.833 444.769 333.5 444.436 333.5 444.036V423.977C333.5 423.577 333.833 423.244 334.233 423.244H335.633C336.634 423.244 337.5 424.11 337.5 425.11V444.036C337.5 444.436 337.234 444.769 336.834 444.769ZM287.295 440.571C289.229 439.904 290.962 438.838 292.429 437.505V437.572C292.429 442.237 289.296 445.369 284.628 445.369C281.028 445.369 278.428 443.503 277.294 440.571C278.828 441.104 280.495 441.437 282.228 441.437C282.762 441.437 283.228 441.437 283.762 441.37C285.095 441.237 286.229 440.971 287.295 440.571ZM280.828 436.506C280.828 436.772 280.561 436.905 280.361 436.839C279.161 436.439 277.894 435.906 276.894 435.173V430.308C276.894 429.908 277.228 429.575 277.628 429.575H280.228C280.628 429.575 280.961 429.908 280.961 430.308L280.828 436.506ZM288.495 430.308C288.495 429.908 288.829 429.575 289.229 429.575H291.829C292.229 429.575 292.563 429.908 292.563 430.308V435.173C291.496 435.906 290.296 436.439 289.096 436.839C288.829 436.905 288.629 436.705 288.629 436.506L288.495 430.308Z" fill="#FA6019"/>
<path d="M388.572 429.175L386.572 427.442L388.639 425.376L390.372 427.309C390.772 427.042 391.106 426.776 391.439 426.576L390.306 424.243L392.973 423.177L393.839 425.643C394.306 425.51 394.706 425.443 395.173 425.376L395.039 422.777H397.906L397.773 425.376C398.24 425.443 398.64 425.51 399.106 425.643L399.973 423.177L402.64 424.243L401.573 426.576C401.973 426.776 402.374 427.042 402.64 427.309L404.374 425.376L406.441 427.442L404.44 429.175C404.707 429.508 404.974 429.908 405.24 430.241L407.641 429.175L408.707 431.774L406.174 432.64C406.307 433.107 406.374 433.507 406.441 433.907L409.041 433.773V436.639L406.441 436.506C406.374 436.972 406.307 437.372 406.174 437.772L408.707 438.638L407.641 441.237L405.24 440.171C404.974 440.571 404.774 440.971 404.44 441.237L406.441 442.97L404.374 445.036L402.64 443.103C402.24 443.37 401.907 443.636 401.573 443.836L402.707 446.169L400.04 447.235L399.173 444.769C398.706 444.903 398.306 444.969 397.84 445.036L397.973 447.635H395.106L395.239 445.036C394.773 444.969 394.373 444.903 393.906 444.769L393.039 447.235L390.372 446.169L391.506 443.836C391.106 443.636 390.706 443.37 390.439 443.103L388.705 445.036L386.639 442.97L388.639 441.237C388.372 440.904 388.105 440.504 387.839 440.171L385.438 441.237L384.372 438.638L386.905 437.772C386.772 437.305 386.705 436.905 386.639 436.506L384.038 436.639V433.773L386.639 433.907C386.705 433.44 386.772 433.04 386.905 432.64L384.372 431.774L385.438 429.175L387.839 430.308C388.105 429.841 388.305 429.575 388.572 429.175ZM390.439 435.239C390.439 436.439 390.772 437.705 391.372 438.638C392.039 439.638 392.973 440.437 394.106 440.971C395.173 441.437 396.506 441.637 397.64 441.37C398.84 441.104 399.973 440.571 400.773 439.704C401.64 438.838 402.24 437.772 402.507 436.572C402.774 435.373 402.64 434.106 402.173 433.04C401.707 431.907 400.973 430.908 399.907 430.308C398.906 429.575 397.706 429.308 396.506 429.308C395.706 429.308 394.906 429.442 394.173 429.775C393.373 430.108 392.773 430.574 392.172 431.041C391.572 431.641 391.172 432.24 390.839 433.04C390.639 433.64 390.439 434.44 390.439 435.239ZM530.253 428.775L539.921 438.372V429.242H541.321V441.57L531.653 431.974V441.037H530.253V428.775ZM513.318 435.106C513.318 437.705 515.651 439.971 518.452 439.971C521.252 439.971 523.586 437.705 523.586 435.106C523.586 432.507 521.319 430.241 518.452 430.241C515.585 430.241 513.318 432.507 513.318 435.106ZM524.919 435.173C524.919 438.571 521.985 441.304 518.452 441.304C514.918 441.304 511.984 438.638 511.984 435.173C511.984 431.774 514.918 429.042 518.452 429.042C521.985 429.042 524.919 431.774 524.919 435.173ZM506.117 431.507C505.584 430.641 505.05 430.241 503.984 430.241C502.917 430.241 501.917 431.041 501.917 432.041C501.917 433.04 502.984 433.507 503.85 433.907L504.717 434.24C506.317 434.906 507.717 435.639 507.717 437.572C507.717 439.638 505.984 441.237 503.784 441.237C501.783 441.237 500.317 440.038 499.917 438.238L501.25 437.838C501.317 438.438 501.65 438.971 502.117 439.438C502.583 439.838 503.117 440.104 503.784 440.104C505.117 440.104 506.384 439.171 506.384 437.772C506.384 436.372 505.25 435.906 504.05 435.439L503.25 435.106C501.783 434.44 500.583 433.773 500.583 432.107C500.583 430.308 502.25 429.108 504.05 429.108C504.717 429.108 505.317 429.242 505.917 429.575C506.517 429.908 506.917 430.375 507.251 430.908L506.117 431.507ZM489.982 434.773H490.449C491.982 434.773 493.583 434.506 493.583 432.64C493.583 430.708 492.116 430.508 490.449 430.508H490.049L489.982 434.773ZM489.982 441.037H488.582V429.308H490.382C492.782 429.308 494.916 429.908 494.916 432.574C494.916 434.373 493.716 435.639 491.782 435.839L495.783 441.104H494.049L490.249 435.906H489.916L489.982 441.037ZM476.781 429.308H483.182V430.508H478.114V434.04H483.048V435.239H478.114V439.838H483.182V441.037H476.781V429.308ZM466.713 434.706H467.647C469.18 434.706 470.447 434.24 470.447 432.574C470.447 430.641 468.847 430.508 467.18 430.508H466.713V434.706ZM466.713 441.037H465.313V429.308H467.38C468.447 429.308 469.58 429.308 470.447 429.975C470.914 430.308 471.247 430.708 471.447 431.108C471.714 431.574 471.847 432.041 471.847 432.64C471.847 433.173 471.714 433.573 471.514 434.04C471.314 434.506 470.98 434.906 470.647 435.173C469.78 435.839 468.713 435.972 467.713 435.972H466.713V441.037ZM455.245 431.308V433.907H458.979V435.906H455.245V439.105H459.112V441.104H452.979V429.308H459.112V431.308H455.245ZM443.244 436.306L446.045 429.308H448.578L443.244 441.704L437.977 429.242H440.511L443.244 436.306ZM433.643 441.037H431.376V429.242H433.71V441.037H433.643ZM423.576 439.038H426.843V441.037H421.175V429.242H423.509L423.576 439.038Z" fill="#F47221"/>
<path d="M606.127 419.912H618.328V424.643H610.994V427.642H616.995V432.374H610.994V435.439H618.328V440.171H606.127V419.912Z" fill="black"/>
<path d="M599.393 427.775C599.193 426.576 598.793 425.576 598.46 425.176C597.859 424.71 597.326 424.443 596.726 424.443C595.859 424.443 595.059 425.043 594.659 426.043C594.126 427.176 593.926 428.642 593.926 430.308C593.926 433.907 594.793 435.773 596.726 435.773C598.126 435.773 599.126 434.573 599.326 432.24H603.993C603.793 434.773 603.127 436.772 601.927 438.372C600.726 439.838 598.926 440.637 596.926 440.637C595.326 440.637 593.859 440.171 592.659 439.504C591.459 438.638 590.525 437.505 589.925 435.906C589.259 434.44 588.992 432.374 588.992 430.375C588.992 427.975 589.392 425.976 590.059 424.243C590.859 422.644 591.859 421.444 592.926 420.645C594.059 419.912 595.326 419.578 596.459 419.578C599.06 419.645 600.993 420.511 602.06 422.044C603.127 423.644 603.86 425.576 603.927 427.842C603.927 427.775 599.393 427.775 599.393 427.775Z" fill="black"/>
<path d="M586.992 419.912H582.191V440.104H586.992V419.912Z" fill="black"/>
<path d="M565.189 419.912H569.657L574.79 431.108V426.709V419.912H579.391V440.171H574.857L569.79 429.242V433.973V440.171H565.189V419.912Z" fill="black"/>
<path d="M608.46 427.776H604.06V432.174H608.46V427.776Z" fill="#049FD6"/>
<path d="M591.525 427.776H587.125V432.174H591.525V427.776Z" fill="#049FD6"/>
<path d="M582.191 427.776H577.791V432.174H582.191V427.776Z" fill="#049FD6"/>
<path d="M565.99 445.036H565.256V451.433H565.99V445.036Z" fill="black"/>
<path d="M565.589 443.77H565.723C565.923 443.77 566.056 443.57 566.056 443.37V443.236C566.056 443.036 565.856 442.837 565.723 442.837H565.589C565.389 442.837 565.256 443.036 565.256 443.236V443.37C565.189 443.57 565.389 443.77 565.589 443.77Z" fill="black"/>
<path d="M572.457 445.569C572.257 445.302 571.99 445.102 571.657 444.969C571.39 444.836 570.923 444.769 570.59 444.769C570.257 444.769 569.923 444.836 569.723 444.903C569.456 445.036 569.19 445.169 568.99 445.302C568.79 445.436 568.656 445.636 568.523 445.836C568.456 445.902 568.39 446.035 568.39 446.102L568.256 445.036C568.256 445.036 568.256 444.969 568.19 444.969H567.523C567.523 444.969 567.523 445.569 567.523 445.636V451.5H568.39V448.168C568.39 447.901 568.39 447.568 568.523 447.302C568.59 446.968 568.723 446.702 568.923 446.435C569.123 446.169 569.323 445.969 569.59 445.769C569.856 445.569 570.19 445.502 570.523 445.502C570.79 445.502 571.057 445.569 571.323 445.636C571.523 445.702 571.723 445.836 571.857 446.035C571.99 446.235 572.123 446.435 572.19 446.769C572.257 447.102 572.323 447.502 572.323 447.901V451.5H573.19V447.835C573.124 446.968 572.923 446.102 572.457 445.569Z" fill="black"/>
<path d="M581.258 449.101C581.191 448.834 580.924 448.834 580.724 448.968C580.724 448.968 580.724 448.968 580.658 449.034C580.524 449.168 580.391 449.301 580.191 449.501C579.991 449.634 579.791 449.767 579.458 449.834C579.191 449.901 578.858 449.967 578.524 449.967C578.124 449.967 577.724 449.901 577.457 449.701C577.124 449.501 576.857 449.301 576.591 449.034C576.324 448.768 576.191 448.368 576.057 448.101C575.924 447.701 575.857 447.302 575.857 446.902C575.857 446.502 575.924 446.035 576.057 445.636C576.191 445.236 576.391 444.836 576.591 444.636C576.857 444.369 577.124 444.103 577.457 443.903C577.791 443.703 578.191 443.636 578.591 443.636C579.191 443.636 579.591 443.77 579.924 444.036C580.191 444.236 580.391 444.369 580.591 444.636C580.791 444.902 581.124 444.902 581.324 444.703L582.125 443.969C581.925 443.703 581.725 443.436 581.524 443.236C581.258 442.97 581.058 442.837 580.724 442.637C580.458 442.437 580.058 442.37 579.791 442.237C579.524 442.103 578.991 442.104 578.658 442.104C577.991 442.104 577.391 442.237 576.857 442.503C576.324 442.77 575.857 443.103 575.457 443.503C575.057 443.969 574.724 444.436 574.59 445.036C574.39 445.636 574.257 446.235 574.257 446.902C574.257 447.635 574.39 448.168 574.59 448.768C574.79 449.368 575.124 449.834 575.457 450.234C575.857 450.7 576.324 451.034 576.791 451.167C577.324 451.433 577.924 451.5 578.591 451.5C578.991 451.5 579.391 451.433 579.724 451.3C580.124 451.167 580.458 451.034 580.724 450.834C581.058 450.634 581.324 450.434 581.591 450.167C581.524 449.967 581.391 449.834 581.324 449.634C581.458 449.567 581.324 449.368 581.258 449.101Z" fill="black"/>
<path d="M582.925 450.5C583.191 450.834 583.591 451.1 583.925 451.3C584.325 451.5 584.791 451.567 585.192 451.567C585.658 451.567 586.058 451.5 586.458 451.3C586.858 451.1 587.258 450.834 587.458 450.5C587.725 450.167 587.992 449.767 588.125 449.434C588.325 449.034 588.392 448.568 588.392 448.168C588.392 447.702 588.325 447.302 588.125 446.902C587.925 446.502 587.725 446.102 587.458 445.836C587.192 445.569 586.792 445.236 586.458 445.036C586.125 444.836 585.592 444.769 585.192 444.769C584.725 444.769 584.325 444.836 583.925 445.036C583.525 445.236 583.125 445.502 582.925 445.836C582.658 446.169 582.391 446.569 582.258 446.902C582.058 447.302 581.991 447.768 581.991 448.168C581.991 448.635 582.058 449.034 582.258 449.434C582.391 449.834 582.658 450.234 582.925 450.5ZM583.725 447.435C583.791 447.168 583.925 446.968 584.058 446.769C584.191 446.569 584.391 446.435 584.591 446.302C584.791 446.169 585.058 446.102 585.392 446.102C585.658 446.102 585.992 446.169 586.192 446.302C586.392 446.435 586.592 446.569 586.725 446.769C586.858 446.968 586.992 447.168 587.058 447.435C587.125 447.702 587.192 447.901 587.192 448.168C587.192 448.435 587.125 448.634 587.058 448.901C586.992 449.168 586.858 449.368 586.725 449.567C586.592 449.767 586.392 449.967 586.192 450.034C585.992 450.167 585.725 450.234 585.392 450.234C585.125 450.234 584.791 450.167 584.591 450.034C584.391 449.901 584.191 449.767 584.058 449.567C583.925 449.368 583.791 449.168 583.725 448.901C583.658 448.634 583.591 448.435 583.591 448.168C583.591 447.901 583.658 447.635 583.725 447.435Z" fill="black"/>
<path d="M589.259 444.969H590.392C590.592 444.969 590.725 445.102 590.725 445.302V445.702C590.792 445.636 590.925 445.502 590.992 445.436C591.125 445.302 591.259 445.236 591.392 445.169C591.525 445.102 591.726 444.969 591.926 444.969C592.126 444.902 592.326 444.902 592.592 444.902C593.392 444.902 593.926 445.169 594.326 445.636C594.726 446.102 594.926 446.702 594.926 447.568V451.5H593.392V447.568C593.392 447.168 593.259 446.835 593.059 446.635C592.859 446.435 592.526 446.302 592.192 446.302C591.992 446.302 591.792 446.369 591.592 446.435C591.392 446.502 591.259 446.635 591.125 446.835C590.992 447.035 590.859 447.168 590.792 447.368C590.725 447.568 590.659 447.835 590.659 448.035V451.5H589.125L589.259 444.969Z" fill="black"/>
<path d="M600.393 449.434C600.06 449.634 599.66 449.901 599.46 450.034C599.326 450.101 599.126 450.167 598.86 450.167C598.593 450.167 598.526 450.034 598.393 449.901C598.26 449.701 598.326 449.434 598.326 449.034V446.302H599.993V444.969H598.326V442.837H596.659V445.036H595.326V446.369H596.659V449.168C596.659 449.501 596.659 449.901 596.726 450.101C596.793 450.367 596.926 450.7 597.059 450.9C597.259 451.1 597.459 451.3 597.726 451.367C597.993 451.5 598.326 451.567 598.66 451.567C599.06 451.567 599.393 451.5 599.593 451.367C599.926 451.233 600.326 451.034 600.66 450.7C600.46 450.367 600.393 449.967 600.393 449.434Z" fill="black"/>
<path d="M606.327 446.102C606.194 445.836 606.06 445.569 605.794 445.302C605.527 445.102 605.26 444.903 604.994 444.836C604.66 444.703 604.327 444.636 603.993 444.636C603.593 444.636 603.26 444.636 603.06 444.703C602.86 444.769 602.527 444.836 602.327 444.903C602.127 444.969 601.927 445.102 601.793 445.169C601.593 445.302 601.527 445.369 601.393 445.436L601.727 445.969C601.927 446.302 602.327 446.435 602.593 446.235C602.66 446.235 602.66 446.169 602.727 446.169C602.993 446.035 603.327 445.969 603.727 445.969C604.127 445.969 604.527 446.035 604.66 446.235C604.927 446.435 605.06 446.702 605.06 447.035V447.168C604.86 447.168 604.727 447.168 604.527 447.168C604.393 447.168 604.193 447.168 604.06 447.168C603.927 447.168 603.793 447.168 603.66 447.168C603.26 447.168 602.86 447.235 602.593 447.302C602.26 447.435 601.927 447.568 601.727 447.768C601.46 447.968 601.327 448.235 601.193 448.501C601.127 448.635 601.06 448.768 601.06 448.968C600.993 449.168 600.993 449.301 600.993 449.567C600.993 449.901 601.06 450.167 601.126 450.434C601.126 450.5 601.127 450.5 601.193 450.567C601.327 450.834 601.46 451.034 601.727 451.234C601.927 451.433 602.193 451.5 602.46 451.633C602.727 451.767 602.993 451.767 603.26 451.767C603.66 451.767 604.06 451.7 604.393 451.5C604.727 451.3 604.994 451.234 605.194 450.967V451.1C605.194 451.433 605.46 451.633 605.794 451.633H606.66V447.235C606.46 446.702 606.46 446.435 606.327 446.102ZM605.06 449.034C605.06 449.234 604.994 449.368 604.86 449.501C604.794 449.634 604.66 449.767 604.527 449.901C604.393 450.034 604.193 450.101 604.06 450.167C603.86 450.234 603.727 450.234 603.527 450.234C603.193 450.234 602.86 450.167 602.727 449.967C602.527 449.834 602.46 449.568 602.46 449.301C602.46 449.034 602.593 448.768 602.727 448.568C602.927 448.368 603.26 448.235 603.727 448.235C603.86 448.235 603.927 448.235 604.06 448.235C604.193 448.235 604.327 448.235 604.46 448.235C604.593 448.235 604.727 448.235 604.794 448.235C604.86 448.235 604.927 448.301 604.927 448.368L605.06 449.034Z" fill="black"/>
<path d="M612.794 450.5C612.527 450.834 612.127 451.1 611.794 451.3C611.394 451.5 610.927 451.567 610.461 451.567C609.994 451.567 609.527 451.5 609.127 451.3C608.727 451.1 608.327 450.9 608.127 450.567C607.86 450.234 607.594 449.901 607.46 449.501C607.327 449.101 607.194 448.635 607.194 448.168C607.194 447.702 607.26 447.302 607.46 446.902C607.66 446.502 607.86 446.102 608.127 445.836C608.394 445.569 608.794 445.236 609.127 445.036C609.527 444.836 609.994 444.769 610.394 444.769C610.927 444.769 611.327 444.903 611.727 445.036C612.127 445.236 612.527 445.502 612.727 445.836L612.194 446.435C611.927 446.702 611.594 446.702 611.327 446.569C611.261 446.502 611.194 446.502 611.127 446.435C610.861 446.302 610.594 446.235 610.327 446.235C610.061 446.235 609.727 446.302 609.527 446.435C609.327 446.569 609.127 446.702 608.994 446.902C608.86 447.102 608.727 447.302 608.66 447.568C608.594 447.835 608.527 448.101 608.527 448.368C608.527 448.635 608.594 448.901 608.66 449.101C608.727 449.368 608.86 449.568 608.994 449.767C609.127 449.967 609.327 450.101 609.527 450.234C609.727 450.367 609.994 450.434 610.327 450.434C610.661 450.434 610.927 450.367 611.194 450.234C611.261 450.167 611.327 450.167 611.461 450.101C611.727 449.901 612.127 449.967 612.327 450.234L612.794 450.5Z" fill="black"/>
<path d="M614.461 446.235H613.461V444.969H614.461V442.903H615.995V444.969H617.595V446.235H615.995V449.034C615.995 449.434 616.061 449.701 616.195 449.901C616.328 450.101 616.528 450.167 616.795 450.167C617.061 450.167 617.261 450.101 617.395 450.034C617.661 449.901 617.928 449.967 618.128 450.234L618.528 450.834C618.195 451.1 617.928 451.3 617.661 451.433C617.395 451.567 616.995 451.633 616.728 451.633C616.328 451.633 615.995 451.567 615.795 451.433C615.528 451.3 615.328 451.167 615.128 450.967C614.928 450.767 614.861 450.5 614.794 450.167C614.728 449.901 614.661 449.501 614.661 449.234L614.461 446.235Z" fill="black"/>
<path d="M335.834 485.554C336.7 485.554 337.434 485.554 338.234 485.554C338.9 485.554 339.101 485.687 339.034 486.421C338.7 487.82 338.7 487.82 337.234 487.82C335.433 487.82 335.433 487.82 335.233 489.619C335.033 491.219 334.767 492.818 334.633 494.418C334.5 495.551 334.967 495.884 336.034 495.484H336.1C336.567 495.351 337.234 495.017 337.3 495.151C337.634 495.684 337.767 496.217 337.834 496.817C337.9 497.017 337.634 497.416 337.434 497.483C336.167 497.816 334.833 498.349 333.5 498.349C332.166 498.416 331.366 497.483 331.433 495.95C331.5 494.418 331.766 492.951 331.966 491.419C332.1 490.286 332.3 489.153 332.433 487.887C330.766 487.887 329.166 487.887 327.566 487.887C327.433 487.887 327.166 488.286 327.099 488.486C326.233 494.418 325.432 500.349 324.632 506.28C324.499 507.413 324.432 507.479 323.232 507.479C321.365 507.479 321.365 507.479 321.632 505.613C322.366 500.549 323.032 495.484 323.766 490.419C323.899 489.553 323.966 488.82 324.099 487.82C323.632 487.82 323.232 487.82 322.899 487.82C322.299 487.887 322.032 487.62 322.165 487.02C322.499 485.687 322.165 485.421 323.832 485.554C324.032 485.554 324.166 485.488 324.432 485.488C324.699 483.888 324.899 482.355 325.166 480.756C325.699 477.69 327.766 475.625 330.566 475.625C331.5 475.625 332.567 476.091 333.433 476.491C334.033 476.757 334.167 477.291 333.767 477.757C333.633 477.957 333.5 478.09 333.433 478.29C333.1 479.09 332.633 479.157 331.9 478.69C330.433 477.824 328.966 478.357 328.499 480.023C327.966 481.756 327.766 483.622 327.499 485.488C329.366 485.488 331.033 485.488 332.833 485.488C332.967 484.555 333.167 483.488 333.233 482.555C333.3 481.822 333.633 481.556 334.367 481.556C336.5 481.622 336.367 481.156 336.034 483.622C336.034 484.155 335.967 484.821 335.834 485.554Z" fill="#283540"/>
<path d="M307.764 486.021C308.897 485.687 309.964 485.154 311.031 485.088C313.565 484.888 315.231 486.487 315.231 489.02C315.231 490.619 314.965 492.152 314.831 493.751C314.698 494.884 314.498 496.017 314.365 497.15C314.298 497.75 314.031 498.016 313.498 498.016C311.031 498.016 311.364 498.216 311.631 496.15C311.898 494.351 312.164 492.618 312.364 490.819C312.498 489.819 312.498 488.686 311.498 488.087C310.431 487.42 309.364 488.02 308.497 488.686C307.764 489.22 307.431 489.819 307.297 490.752C307.031 492.952 306.631 495.084 306.431 497.217C306.364 497.883 306.097 498.083 305.497 498.083C302.897 498.083 303.364 498.15 303.63 496.017C304.497 489.686 305.43 483.288 306.23 476.957C306.297 476.358 306.564 476.091 307.164 476.091C309.698 476.158 309.364 475.758 309.031 478.157C308.497 480.756 308.097 483.488 307.764 486.021Z" fill="#283540"/>
<path d="M296.896 498.416C296.03 498.083 294.829 497.75 293.763 497.35C293.229 497.15 293.096 496.75 293.496 496.35C293.629 496.15 293.763 495.95 293.896 495.75C294.163 495.151 294.563 495.084 295.096 495.417C295.83 495.75 296.563 495.95 297.363 496.084C298.096 496.15 298.63 495.884 298.897 495.217C299.163 494.484 298.763 493.951 298.163 493.551C297.363 493.018 296.63 492.618 295.896 492.018C294.896 491.219 294.229 490.286 294.229 488.953C294.229 487.62 294.829 486.487 296.03 485.954C297.896 485.088 299.897 485.088 301.764 485.954C302.23 486.154 302.564 486.421 302.297 487.02C301.697 488.153 301.497 488.287 300.763 488.087C299.963 487.82 299.23 487.62 298.43 487.62C298.03 487.62 297.496 488.087 297.363 488.486C297.23 488.886 297.496 489.486 297.83 489.753C298.697 490.486 299.563 490.952 300.43 491.552C301.43 492.352 302.03 493.351 301.964 494.684C301.897 496.35 301.097 497.55 299.43 498.083C298.763 498.15 297.963 498.216 296.896 498.416Z" fill="#283540"/>
<path d="M281.761 497.35C281.761 500.482 281.761 503.481 281.761 506.546C281.761 506.88 281.561 507.346 281.361 507.413C280.761 507.679 280.361 507.346 280.361 506.613C280.361 499.816 280.361 493.018 280.361 486.221C280.361 485.954 280.695 485.687 280.828 485.421C281.161 485.621 281.561 485.887 282.028 486.221C283.362 485.354 285.095 484.888 287.029 485.354C288.295 485.687 289.362 486.354 290.162 487.42C292.029 489.819 292.096 493.551 290.296 495.95C288.495 498.349 285.562 498.883 281.761 497.35ZM290.229 491.552C290.229 491.285 290.229 490.886 290.162 490.552C289.762 488.686 288.962 487.154 287.029 486.487C285.362 485.887 283.762 486.287 282.495 487.487C282.162 487.82 281.895 488.353 281.895 488.82C281.828 490.686 281.961 492.552 281.828 494.418C281.761 495.617 282.362 496.217 283.228 496.683C283.695 496.883 284.095 497.017 284.562 497.083C287.695 497.616 290.229 495.151 290.229 491.552Z" fill="#283540"/>
<path d="M252.692 486.954C253.959 485.954 255.292 485.354 256.759 485.221C259.693 484.954 261.826 486.487 262.026 489.419C262.226 492.018 262.093 494.751 262.16 497.35C262.16 497.883 261.893 498.016 261.426 498.016C260.893 498.016 260.626 497.816 260.693 497.283C260.693 494.951 260.693 492.685 260.693 490.352C260.626 486.754 257.959 485.221 254.692 486.887C253.359 487.62 252.425 488.486 252.625 490.286C252.825 492.618 252.692 494.884 252.692 497.15C252.692 497.683 252.625 498.016 251.959 498.016C251.358 498.016 251.092 497.816 251.092 497.15C251.092 490.419 251.092 483.621 251.092 476.891C251.092 476.224 251.358 476.024 251.959 476.024C252.692 476.024 252.625 476.424 252.625 476.891C252.625 479.89 252.625 482.955 252.625 485.954C252.692 486.154 252.692 486.487 252.692 486.954Z" fill="#283540"/>
<path d="M265.293 492.352C265.293 494.551 266.56 496.417 268.427 496.95C270.427 497.683 272.227 496.95 273.827 495.884C274.361 496.35 274.761 496.75 274.027 497.15C270.827 499.082 265.627 498.883 264.16 493.951C263.426 491.552 263.826 489.286 265.427 487.287C266.96 485.421 269.094 484.754 271.427 485.421C273.761 486.087 274.961 487.82 275.361 490.086C275.761 492.352 275.694 492.352 273.427 492.352C271.027 492.352 268.694 492.352 266.36 492.352C265.96 492.352 265.693 492.352 265.293 492.352ZM265.36 491.152C268.16 491.152 270.961 491.152 273.694 491.152C273.827 491.152 274.027 490.886 274.094 490.752C274.428 488.753 272.561 486.42 270.494 486.221C267.627 485.954 265.427 488.02 265.36 491.152Z" fill="#283540"/>
<path d="M317.698 497.95C317.498 497.95 317.298 497.95 317.165 497.95C316.298 498.016 316.232 497.616 316.298 496.95C316.765 494.018 317.165 490.952 317.498 488.02C317.565 487.354 317.698 486.82 317.765 486.154C317.832 485.554 318.165 485.354 318.698 485.354C320.699 485.421 320.832 484.954 320.499 487.287C320.032 490.352 319.632 493.418 319.299 496.483C319.099 497.95 319.099 497.95 317.698 497.95Z" fill="#283540"/>
<path d="M278.628 487.087C278.628 490.419 278.628 493.818 278.628 497.15C278.628 497.683 278.561 498.016 277.828 498.016C277.094 498.016 277.028 497.616 277.028 497.15C277.028 490.419 277.028 483.755 277.028 477.024C277.028 476.491 276.961 476.158 277.761 476.091C278.561 476.091 278.561 476.491 278.561 477.024C278.628 480.289 278.628 483.688 278.628 487.087Z" fill="#283540"/>
<path d="M322.032 478.29C322.032 479.29 321.099 480.223 320.032 480.289C319.165 480.289 318.632 479.69 318.565 478.89C318.498 477.89 319.432 476.957 320.432 476.891C321.365 476.757 322.032 477.424 322.032 478.29Z" fill="#283540"/>
<path d="M134.947 497.15V486.487C134.947 485.821 135.48 485.354 136.08 485.354C136.747 485.354 137.214 485.887 137.214 486.487V497.15C137.214 497.816 136.68 498.283 136.08 498.283C135.547 498.349 134.947 497.75 134.947 497.15ZM148.548 497.616L143.414 489.419V497.15C143.414 497.816 142.881 498.283 142.281 498.283C141.614 498.283 141.147 497.75 141.147 497.15V486.887C141.147 486.021 141.881 485.288 142.748 485.288H142.814C143.348 485.288 143.881 485.554 144.148 486.021L149.282 494.084V486.421C149.282 485.754 149.815 485.288 150.415 485.288C151.082 485.288 151.548 485.821 151.548 486.421V496.683C151.548 497.55 150.815 498.283 149.948 498.283C149.348 498.349 148.882 498.083 148.548 497.616ZM159.749 487.553V497.217C159.749 497.883 159.216 498.283 158.682 498.283H158.482C157.816 498.283 157.416 497.75 157.416 497.217V487.487H154.682C154.015 487.487 153.615 486.954 153.615 486.421C153.615 485.754 154.149 485.354 154.682 485.354H162.55C163.216 485.354 163.616 485.887 163.616 486.421C163.616 487.087 163.083 487.487 162.55 487.487L159.749 487.553ZM165.55 497.283V486.354C165.55 485.754 166.083 485.288 166.617 485.288H173.751C174.351 485.288 174.817 485.821 174.817 486.354C174.817 486.887 174.284 487.42 173.751 487.42H167.883V490.419H172.884C173.484 490.419 173.951 490.952 173.951 491.485C173.951 492.085 173.417 492.552 172.884 492.552H167.883V496.084H173.751C174.351 496.084 174.817 496.617 174.817 497.15C174.817 497.75 174.284 498.216 173.751 498.216H166.617C166.083 498.349 165.55 497.883 165.55 497.283ZM184.818 497.616L182.952 493.351H180.085V497.15C180.085 497.816 179.551 498.283 178.951 498.283H178.884C178.218 498.283 177.751 497.75 177.751 497.15V486.487C177.751 485.821 178.284 485.354 178.884 485.354H183.218C186.285 485.354 187.752 487.354 187.752 489.419C187.752 491.152 186.819 492.485 185.352 493.085L186.952 496.75C187.285 497.55 186.752 498.349 185.885 498.349C185.485 498.349 185.018 498.083 184.818 497.616ZM183.218 487.354H180.151V491.219H183.285C184.618 491.219 185.418 490.486 185.418 489.286C185.352 488.353 184.552 487.354 183.218 487.354ZM199.02 497.017C198.086 497.95 196.686 498.549 195.286 498.549C193.886 498.549 192.619 498.083 191.619 497.083C190.219 495.684 190.019 493.951 190.019 491.819C190.019 489.686 190.219 487.953 191.619 486.554C192.553 485.621 193.953 485.088 195.286 485.088C196.686 485.088 198.02 485.621 199.02 486.62C199.353 487.02 199.687 487.354 199.887 487.753C200.287 488.553 199.687 489.353 198.82 489.353C198.286 489.353 197.953 489.086 197.753 488.62C197.686 488.353 197.486 488.153 197.353 487.953C196.953 487.42 196.22 487.087 195.353 487.087C194.619 487.087 193.886 487.42 193.353 487.953C192.486 488.886 192.486 490.486 192.486 491.752C192.486 492.885 192.486 494.551 193.353 495.55C193.886 496.084 194.619 496.417 195.353 496.417C196.22 496.417 196.886 496.15 197.353 495.55C197.553 495.351 197.686 495.084 197.753 494.817C197.953 494.351 198.42 494.084 198.82 494.084C199.687 494.084 200.22 494.951 199.887 495.684C199.62 496.284 199.353 496.683 199.02 497.017ZM211.754 497.15C210.821 498.083 209.354 498.616 207.954 498.616C206.554 498.616 205.22 498.083 204.154 497.15C202.754 495.75 202.554 494.018 202.554 491.885C202.554 489.753 202.82 488.02 204.154 486.62C205.087 485.687 206.554 485.154 207.954 485.154C209.354 485.154 210.688 485.687 211.754 486.62C213.155 488.02 213.355 489.753 213.355 491.885C213.421 494.018 213.155 495.75 211.754 497.15ZM210.088 488.153C209.554 487.62 208.821 487.287 208.021 487.287C207.287 487.287 206.487 487.62 205.954 488.153C205.087 489.086 205.02 490.686 205.02 491.952C205.02 493.085 205.087 494.684 205.954 495.684C206.487 496.217 207.221 496.55 208.021 496.55C208.754 496.55 209.554 496.217 210.088 495.684C210.954 494.751 211.021 493.151 211.021 491.952C210.954 490.686 210.954 489.02 210.088 488.153ZM227.156 497.217V489.086L224.089 497.35C223.889 497.883 223.422 498.216 222.956 498.216C222.489 498.216 222.022 497.883 221.822 497.35L218.755 488.953V497.217C218.755 497.883 218.222 498.349 217.622 498.349C217.022 498.349 216.488 497.816 216.488 497.217V487.154C216.488 486.221 217.355 485.354 218.288 485.354H218.488C219.222 485.354 219.889 485.821 220.155 486.487L223.089 494.551L226.089 486.487C226.356 485.754 227.023 485.354 227.756 485.354C228.689 485.354 229.556 486.221 229.556 487.154V497.217C229.556 497.883 229.023 498.349 228.423 498.349C227.556 498.349 227.156 497.816 227.156 497.217ZM121.345 476.691H100.677C98.7432 476.691 97.2097 478.224 97.2097 480.09V500.749C97.2097 502.681 98.7432 504.214 100.677 504.214H121.345C123.279 504.214 124.746 502.681 124.746 500.815V480.156C124.746 478.224 123.212 476.691 121.345 476.691ZM114.678 481.756C114.678 481.222 115.078 480.889 115.545 480.889C116.078 480.889 116.412 481.289 116.412 481.756V494.018C116.412 494.551 116.012 494.884 115.545 494.884C115.011 494.884 114.678 494.484 114.678 494.018V481.756ZM110.078 481.289C110.078 480.756 110.478 480.423 110.944 480.423C111.478 480.423 111.811 480.823 111.811 481.289V494.551C111.811 495.084 111.411 495.417 110.944 495.417C110.411 495.417 110.078 495.017 110.078 494.551V481.289ZM105.477 481.756C105.477 481.222 105.877 480.889 106.344 480.889C106.877 480.889 107.211 481.289 107.211 481.756V494.018C107.211 494.551 106.811 494.884 106.344 494.884C105.877 494.884 105.477 494.484 105.477 494.018V481.756ZM100.877 483.622C100.877 483.088 101.277 482.755 101.744 482.755C102.277 482.755 102.61 483.155 102.61 483.622V491.885C102.61 492.418 102.21 492.752 101.744 492.752C101.21 492.752 100.877 492.352 100.877 491.885V483.622ZM120.812 497.616C120.679 497.75 117.278 500.549 111.011 500.549C104.744 500.549 101.41 497.75 101.21 497.616C100.81 497.283 100.743 496.75 101.143 496.35C101.477 495.95 102.01 495.884 102.41 496.284C102.477 496.284 105.477 498.816 111.011 498.816C116.612 498.816 119.612 496.284 119.612 496.217C120.012 495.884 120.545 495.95 120.879 496.284C121.212 496.683 121.145 497.283 120.812 497.616ZM121.079 491.819C121.079 492.352 120.679 492.685 120.212 492.685C119.679 492.685 119.345 492.285 119.345 491.819V483.555C119.345 483.022 119.745 482.689 120.212 482.689C120.745 482.689 121.079 483.088 121.079 483.555V491.819Z" fill="#1F8DED"/>
<path d="M488.449 498.549C488.449 492.685 488.449 486.887 488.449 481.089C488.515 481.089 488.649 481.022 488.715 481.022C491.382 481.022 494.183 481.022 496.85 481.022C498.516 481.089 500.183 481.489 501.583 482.355C504.184 483.955 505.384 486.42 505.517 489.419C505.584 491.619 505.05 493.684 503.65 495.351C502.05 497.283 499.917 498.149 497.516 498.416C496.983 498.483 496.516 498.483 495.983 498.483C493.583 498.483 491.316 498.483 488.915 498.483C488.849 498.549 488.649 498.549 488.449 498.549ZM493.716 485.554C493.716 488.353 493.716 491.085 493.716 493.818C494.583 493.818 495.316 493.818 496.116 493.818C498.516 493.818 500.183 492.218 500.317 489.819C500.45 487.62 499.316 485.954 497.25 485.621C496.116 485.554 494.849 485.621 493.716 485.554Z" fill="black"/>
<path d="M522.652 498.549C522.386 498.549 522.186 498.549 521.985 498.549C520.385 498.549 518.785 498.549 517.185 498.549C516.852 498.549 516.652 498.483 516.585 498.149C515.918 496.617 515.318 495.017 514.651 493.485C514.585 493.285 514.451 493.151 514.185 493.151C513.651 493.151 513.185 493.151 512.651 493.151C512.651 493.351 512.651 493.485 512.651 493.684C512.651 495.151 512.651 496.617 512.651 498.083C512.651 498.416 512.585 498.549 512.251 498.549C510.784 498.549 509.384 498.549 507.917 498.549C507.584 498.549 507.451 498.483 507.451 498.149C507.451 492.552 507.451 486.954 507.451 481.422C507.451 481.089 507.517 481.022 507.851 481.022C510.784 481.022 513.851 481.022 516.785 481.022C519.252 481.089 521.185 482.022 522.186 484.421C523.186 486.82 522.986 489.153 521.185 491.152C520.785 491.619 520.252 492.018 519.719 492.352C520.585 494.351 521.585 496.417 522.652 498.549ZM512.518 489.086C513.585 489.086 514.585 489.086 515.585 489.086C516.585 489.086 517.252 488.42 517.252 487.353C517.252 486.287 516.585 485.621 515.518 485.621C514.651 485.621 513.651 485.621 512.785 485.621C512.651 485.621 512.585 485.621 512.451 485.687C512.518 486.82 512.518 487.887 512.518 489.086Z" fill="black"/>
<path d="M549.921 492.552C547.321 492.552 544.854 492.552 542.254 492.552C542.254 494.551 542.254 496.483 542.254 498.483C540.52 498.483 538.787 498.483 537.053 498.483C537.053 492.618 537.053 486.887 537.053 481.022C541.387 481.022 545.721 481.022 550.055 481.022C550.055 482.555 550.055 484.021 550.055 485.554C547.455 485.554 544.921 485.554 542.254 485.554C542.254 486.354 542.254 487.087 542.254 487.887C542.387 487.887 542.587 487.887 542.721 487.887C544.988 487.887 547.188 487.887 549.455 487.887C549.788 487.887 549.921 487.953 549.921 488.286C549.921 489.553 549.921 490.885 549.921 492.152C549.921 492.352 549.921 492.418 549.921 492.552Z" fill="black"/>
<path d="M556.522 485.621C554.989 485.621 553.522 485.621 551.988 485.621C551.988 484.088 551.988 482.555 551.988 481.022C552.122 481.022 552.255 481.022 552.388 481.022C556.855 481.022 561.389 481.022 565.856 481.022C566.19 481.022 566.323 481.089 566.323 481.489C566.323 482.822 566.323 484.221 566.323 485.687C564.79 485.687 563.323 485.687 561.789 485.687C561.789 490.019 561.789 494.284 561.789 498.616C559.989 498.616 558.322 498.616 556.522 498.616C556.522 494.218 556.522 489.953 556.522 485.621Z" fill="black"/>
<path d="M531.786 481.022C532.92 481.022 534.12 481.022 535.253 481.022C535.453 481.022 535.653 481.156 535.853 481.222C535.787 481.422 535.72 481.689 535.587 481.822C534.32 483.288 532.986 484.821 531.653 486.287C531.586 486.42 531.453 486.487 531.386 486.62C531.32 486.754 531.12 487.087 531.186 487.154C531.32 487.287 531.586 487.42 531.786 487.42C532.253 487.487 532.653 487.42 533.12 487.42C533.32 487.42 533.653 487.553 533.653 487.687C533.72 487.82 533.586 488.153 533.453 488.286C532.453 489.353 531.386 490.486 530.386 491.485C530.319 491.552 530.253 491.619 530.186 491.685C530.119 491.818 530.053 492.018 530.053 492.085C530.119 492.218 530.319 492.285 530.453 492.285C530.786 492.285 531.186 492.285 531.453 492.285C531.586 492.285 531.853 492.418 531.92 492.552C531.986 492.685 531.853 492.885 531.72 493.018C529.319 494.884 526.986 496.683 524.586 498.483C524.386 498.616 524.119 498.683 523.919 498.816C523.985 498.549 523.985 498.283 524.119 498.083C524.719 496.817 525.319 495.484 525.986 494.218C526.252 493.751 526.119 493.551 525.519 493.551C525.119 493.551 524.719 493.551 524.452 493.551C524.185 493.551 523.852 493.485 523.785 493.351C523.719 493.218 523.785 492.885 523.919 492.685C524.719 491.419 525.452 490.086 526.252 488.82C526.319 488.686 526.452 488.353 526.386 488.286C526.252 488.153 525.986 488.087 525.786 488.02C525.319 488.02 524.852 488.02 524.386 488.02C523.852 488.02 523.719 487.753 523.985 487.287C525.052 485.421 526.119 483.555 527.186 481.622C527.452 481.222 527.786 481.022 528.186 481.022C529.519 481.022 530.653 481.022 531.786 481.022Z" fill="black"/>
<path d="M493.716 485.554C494.916 485.621 496.116 485.554 497.249 485.687C499.316 486.021 500.45 487.687 500.316 489.886C500.183 492.285 498.516 493.884 496.116 493.884C495.316 493.884 494.516 493.884 493.716 493.884C493.716 491.085 493.716 488.42 493.716 485.554Z" fill="white"/>
<path d="M512.518 489.086C512.518 487.953 512.518 486.82 512.518 485.687C512.651 485.687 512.718 485.621 512.851 485.621C513.718 485.621 514.718 485.621 515.585 485.621C516.652 485.621 517.318 486.354 517.318 487.353C517.318 488.353 516.652 489.019 515.651 489.086C514.585 489.086 513.651 489.086 512.518 489.086Z" fill="white"/>
<path d="M371.504 478.423C372.037 478.423 372.437 478.89 372.437 479.356C372.437 479.823 371.97 480.289 371.504 480.289H371.437C370.97 480.289 370.57 479.823 370.57 479.423C370.57 479.157 370.704 478.89 370.837 478.69C370.97 478.423 371.237 478.423 371.504 478.423ZM371.504 477.157C370.304 477.157 369.237 478.224 369.304 479.423C369.37 480.489 370.237 481.422 371.37 481.489C371.437 481.489 371.437 481.489 371.504 481.489C372.704 481.489 373.704 480.489 373.704 479.29C373.704 478.224 372.637 477.157 371.504 477.157Z" fill="#FF4F1F"/>
<path d="M370.037 492.418C371.237 492.418 372.304 493.418 372.304 494.684C372.304 495.884 371.304 496.95 370.037 496.95H367.637C366.437 496.95 365.37 495.95 365.37 494.684C365.37 493.485 366.37 492.418 367.637 492.418H370.037ZM370.037 490.952H367.637C365.637 490.952 363.97 492.618 363.97 494.617C363.97 496.617 365.637 498.283 367.637 498.283H370.037C372.037 498.283 373.704 496.617 373.704 494.617C373.704 492.618 372.037 490.952 370.037 490.952Z" fill="#FF4F1F"/>
<path d="M370.037 483.888C371.237 483.888 372.304 484.888 372.304 486.154C372.304 487.353 371.304 488.42 370.037 488.42H364.436C363.236 488.42 362.169 487.42 362.169 486.154C362.169 484.954 363.17 483.888 364.436 483.888H370.037ZM370.037 482.422H364.436C362.436 482.422 360.769 484.088 360.769 486.087C360.769 488.087 362.436 489.753 364.436 489.753H370.037C372.037 489.753 373.704 488.087 373.704 486.087C373.704 484.088 372.037 482.422 370.037 482.422Z" fill="#FF4F1F"/>
<path d="M464.18 482.689H463.646V482.489H464.913V482.689H464.38V484.021H464.113V482.689H464.18ZM465.846 484.021L465.38 482.689V484.021H465.113V482.422H465.513L465.98 483.755L466.446 482.422H466.846V484.021H466.646V482.689L466.18 484.021H465.846ZM402.173 498.283V496.683H394.839V491.019H401.373V489.486H394.839V484.021H402.173V482.422H393.239V498.283H402.173ZM428.443 498.283V496.683H421.109V491.019H427.643V489.486H421.109V484.021H428.443V482.422H419.508V498.283H428.443ZM447.778 498.283V491.752L453.112 482.489H451.378L447.044 490.086L442.644 482.489H440.844L446.178 491.752V498.283H447.778ZM416.241 498.283V482.422H414.641V495.351L406.774 482.422H405.174V498.283H406.774V485.354L414.641 498.283H416.241ZM384.838 491.552H388.639V492.818C388.639 495.95 386.638 497.017 384.838 497.017C382.971 497.017 381.038 495.95 381.038 492.818V488.153C381.038 485.021 383.038 483.955 384.838 483.955C386.839 483.955 388.239 485.154 388.572 487.154H390.172C389.772 484.288 387.705 482.355 384.838 482.355C381.638 482.355 379.438 484.688 379.438 488.153V492.885C379.438 496.35 381.638 498.683 384.838 498.683C388.039 498.683 390.239 496.35 390.239 492.885V490.086H384.838V491.552ZM430.376 493.551C430.443 495.817 431.91 498.549 435.51 498.549C438.377 498.549 440.177 496.883 440.177 494.218C440.177 491.752 438.51 490.419 436.977 490.019L434.243 489.219C432.91 488.82 432.176 487.887 432.176 486.554C432.176 484.888 433.31 483.821 435.11 483.821C436.777 483.821 437.977 484.754 438.31 486.62H439.91C439.577 484.421 438.244 482.289 435.11 482.289C432.443 482.289 430.576 484.021 430.576 486.62C430.576 488.753 431.71 490.419 433.71 490.952L436.31 491.752C437.644 492.152 438.51 493.085 438.51 494.351C438.51 496.15 437.444 497.083 435.377 497.083C433.376 497.083 431.976 495.75 431.843 493.618H430.376V493.551ZM453.845 493.551C453.912 495.817 455.379 498.549 458.979 498.549C461.846 498.549 463.646 496.883 463.646 494.218C463.646 491.752 461.979 490.419 460.446 490.019L457.712 489.219C456.379 488.82 455.645 487.887 455.645 486.554C455.645 484.888 456.779 483.821 458.579 483.821C460.246 483.821 461.446 484.754 461.779 486.62H463.379C463.046 484.421 461.713 482.289 458.579 482.289C455.912 482.289 454.045 484.021 454.045 486.62C454.045 488.753 455.179 490.419 457.179 490.952L459.779 491.752C461.113 492.152 461.979 493.085 461.979 494.351C461.979 496.15 460.913 497.083 458.846 497.083C456.845 497.083 455.445 495.75 455.312 493.618H453.845V493.551Z" fill="#4E5054"/>
<g filter="url(#filter0_d_176_95438)">
<path d="M460.579 319.815H203.087C191.219 319.815 181.551 310.152 181.551 298.29V260.704C181.551 248.842 191.219 239.178 203.087 239.178H460.579C472.447 239.178 482.115 248.842 482.115 260.704V298.29C482.115 310.152 472.447 319.815 460.579 319.815Z" fill="white"/>
</g>
<path d="M241.357 271.539V291.932C241.357 292.465 241.157 292.998 240.757 293.398C240.357 293.798 239.824 293.998 239.29 293.998H218.422C216.221 293.998 214.088 293.131 212.554 291.598C211.021 290.066 210.087 288 210.087 285.867V271.606C210.087 269.473 210.954 267.341 212.554 265.875C214.088 264.342 216.221 263.475 218.422 263.475H233.023C235.223 263.475 237.357 264.342 238.89 265.875C240.424 267.407 241.357 269.34 241.357 271.539Z" fill="#1B92D8"/>
<path d="M226.689 271.539C226.689 270.873 226.156 270.34 225.489 270.34C224.822 270.34 224.289 270.873 224.289 271.539V286.2C224.289 286.867 224.822 287.4 225.489 287.4C226.156 287.4 226.689 286.867 226.689 286.2V271.539Z" fill="white"/>
<path d="M231.89 276.204C231.89 275.538 231.223 274.938 230.49 274.938C229.689 274.938 229.089 275.471 229.089 276.204V281.136C229.089 281.802 229.756 282.402 230.49 282.402C231.29 282.402 231.89 281.869 231.89 281.136V276.204Z" fill="white"/>
<path d="M222.422 276.204C222.422 275.538 221.755 274.938 221.022 274.938C220.289 274.938 219.622 275.471 219.622 276.204V281.136C219.622 281.802 220.289 282.402 221.022 282.402C221.755 282.402 222.422 281.869 222.422 281.136V276.204Z" fill="white"/>
<path d="M235.423 280.003C236.086 280.003 236.623 279.496 236.623 278.87C236.623 278.244 236.086 277.737 235.423 277.737C234.76 277.737 234.223 278.244 234.223 278.87C234.223 279.496 234.76 280.003 235.423 280.003Z" fill="white"/>
<path d="M216.021 280.003C216.684 280.003 217.222 279.496 217.222 278.87C217.222 278.244 216.684 277.737 216.021 277.737C215.359 277.737 214.821 278.244 214.821 278.87C214.821 279.496 215.359 280.003 216.021 280.003Z" fill="white"/>
<path d="M260.559 291.665C254.625 291.665 250.425 288.533 249.958 283.535H254.825C255.359 286.001 257.625 287.533 260.892 287.533C263.559 287.533 265.16 286.467 265.16 284.668C265.16 283.268 264.093 282.335 261.959 281.935L257.892 281.136C253.158 280.203 250.958 278.003 250.958 274.272C250.958 269.74 254.692 266.741 260.226 266.741C262.359 266.741 269.493 267.274 270.293 274.272H265.426C265.093 272.539 263.959 270.606 260.492 270.606C257.692 270.606 255.959 271.806 255.959 273.805C255.959 275.804 257.759 276.404 259.692 276.804L262.759 277.404C267.96 278.47 270.16 280.469 270.16 284.068C270.16 288.733 266.36 291.665 260.559 291.665Z" fill="#1F2937"/>
<path d="M297.029 291.199V282.468C297.029 279.669 295.563 278.07 293.096 278.07C292.429 278.07 291.696 278.27 291.095 278.67C290.495 279.07 289.962 279.47 289.629 280.069V280.136V280.203C289.695 280.802 289.762 281.402 289.762 282.002V291.132H285.095V282.402C285.095 279.603 283.695 278.003 281.094 278.003C280.428 278.07 279.761 278.27 279.228 278.603C278.694 278.936 278.228 279.403 277.894 280.003V280.069V291.132H273.16V274.471H277.828V275.738L278.161 275.404C278.694 274.871 279.361 274.471 280.094 274.205C280.828 273.938 281.561 273.805 282.361 273.872C283.361 273.872 284.362 274.071 285.295 274.471C286.228 274.871 287.028 275.471 287.695 276.204L287.829 276.404L288.029 276.271C288.829 275.471 289.829 274.871 290.895 274.471C291.962 274.071 293.096 273.872 294.229 273.938C298.496 273.938 301.63 277.337 301.63 281.935V291.065H297.029V291.199Z" fill="#1F2937"/>
<path d="M313.698 277.937C313.031 277.937 312.431 278.07 311.831 278.337C311.231 278.603 310.697 278.936 310.297 279.403C309.831 279.869 309.497 280.403 309.297 281.002C309.097 281.602 308.964 282.202 309.031 282.868C309.031 283.468 309.097 284.135 309.364 284.734C309.564 285.334 309.964 285.867 310.364 286.334C310.764 286.8 311.364 287.133 311.898 287.4C312.498 287.667 313.098 287.8 313.764 287.8C314.564 287.8 315.431 287.667 316.165 287.267C316.898 286.934 317.565 286.4 318.031 285.734V285.667V280.069V280.003C317.565 279.336 316.898 278.803 316.165 278.47C315.431 278.137 314.498 277.937 313.698 277.937ZM312.831 291.532C310.564 291.465 308.364 290.532 306.764 288.933C305.164 287.333 304.297 285.134 304.363 282.935C304.297 281.802 304.497 280.669 304.897 279.67C305.297 278.603 305.897 277.67 306.697 276.871C307.497 276.071 308.431 275.404 309.497 274.938C310.564 274.471 311.697 274.272 312.831 274.272C314.564 274.205 316.231 274.671 317.698 275.604L318.031 275.804V274.605H322.565V291.265H317.898V290.066L317.565 290.266C316.231 291.132 314.564 291.598 312.831 291.532Z" fill="#1F2937"/>
<path d="M326.499 291.199V274.538H331.166V276.737L331.5 276.404C333.1 275.005 335.167 274.205 337.3 274.271V278.537C336.167 278.537 335.033 278.736 333.966 279.203C332.9 279.603 331.966 280.269 331.166 281.069V281.136V291.199H326.499Z" fill="#1F2937"/>
<path d="M348.768 291.732C344.634 291.732 341.967 288.933 341.967 284.601V278.337H338.3V274.605H341.967V268.54H346.568V274.605H352.902V278.337H346.568V284.601C346.568 286.534 347.768 287.6 349.835 287.6C350.768 287.6 351.702 287.467 352.635 287.2L353.235 290.999C351.768 291.532 350.235 291.732 348.768 291.732Z" fill="#1F2937"/>
<path d="M363.236 282.269H371.237L367.17 272.672L363.236 282.269ZM374.904 291.199L372.97 286.534H361.436L359.502 291.199H354.368L364.903 267.274H369.57L380.038 291.199H374.904Z" fill="#1F2937"/>
<path d="M388.638 291.732C385.838 291.732 381.104 290.932 380.638 285.734H384.838C385.171 287.4 386.438 288.266 388.638 288.266C390.572 288.266 391.839 287.6 391.839 286.6C391.839 285.801 391.105 285.201 389.972 285.001L386.238 284.334C384.371 284.001 381.238 282.935 381.238 279.536C381.238 276.137 384.038 274.072 388.572 274.072C390.705 274.072 395.639 274.605 396.173 279.47H391.972C391.772 278.137 390.505 277.404 388.572 277.404C386.638 277.404 385.772 278.337 385.772 279.07C385.772 279.603 386.105 280.536 388.038 280.869L391.239 281.402C394.639 282.002 396.373 283.601 396.373 286.2C396.306 289.599 393.372 291.732 388.638 291.732Z" fill="#1F2937"/>
<path d="M406.107 291.732C403.307 291.732 398.573 290.932 398.106 285.734H402.307C402.64 287.4 403.907 288.266 406.107 288.266C408.041 288.266 409.307 287.6 409.307 286.6C409.307 285.801 408.574 285.201 407.44 285.001L403.707 284.334C401.84 284.001 398.706 282.935 398.706 279.536C398.706 276.137 401.507 274.072 406.04 274.072C408.174 274.072 413.108 274.605 413.641 279.47H409.441C409.241 278.137 407.974 277.404 406.04 277.404C404.107 277.404 403.24 278.337 403.24 279.07C403.24 279.603 403.507 280.536 405.507 280.869L408.707 281.402C412.108 282.002 413.841 283.601 413.841 286.2C413.774 289.599 410.841 291.732 406.107 291.732Z" fill="#1F2937"/>
<path d="M419.175 270.939C418.775 270.939 418.441 270.873 418.108 270.806C417.775 270.739 417.441 270.473 417.175 270.273C416.908 270.006 416.708 269.74 416.575 269.407C416.441 269.073 416.375 268.74 416.375 268.34C416.375 267.607 416.641 266.874 417.175 266.408C417.708 265.875 418.441 265.608 419.175 265.608C419.908 265.608 420.642 265.875 421.175 266.408C421.708 266.941 421.975 267.607 421.975 268.34C421.975 268.674 421.908 269.073 421.775 269.407C421.642 269.74 421.442 270.006 421.175 270.273C420.908 270.54 420.575 270.739 420.242 270.806C419.908 270.939 419.575 271.006 419.175 270.939ZM416.908 291.199V274.538H421.575V291.199H416.908Z" fill="#1F2937"/>
<path d="M432.31 291.732C429.509 291.732 424.776 290.932 424.309 285.734H428.509C428.843 287.4 430.109 288.266 432.31 288.266C434.243 288.266 435.443 287.6 435.443 286.6C435.443 285.801 434.71 285.201 433.576 285.001L429.843 284.334C427.976 284.001 424.842 282.935 424.842 279.536C424.842 276.137 427.642 274.072 432.176 274.072C434.31 274.072 439.244 274.605 439.777 279.47H435.577C435.377 278.137 434.11 277.404 432.176 277.404C430.243 277.404 429.376 278.337 429.376 279.07C429.376 279.603 429.709 280.536 431.643 280.869L434.843 281.402C438.244 282.002 439.977 283.601 439.977 286.2C439.977 289.599 437.043 291.732 432.31 291.732Z" fill="#1F2937"/>
<path d="M451.445 291.732C447.311 291.732 444.644 288.933 444.644 284.601V278.337H440.977V274.605H444.644V268.54H449.245V274.605H455.579V278.337H449.245V284.601C449.245 286.534 450.445 287.6 452.445 287.6C453.378 287.6 454.312 287.467 455.245 287.2L455.845 290.999C454.445 291.532 452.912 291.732 451.445 291.732Z" fill="#1F2937"/>
<path d="M241.357 271.539V291.932C241.357 292.465 241.157 292.998 240.757 293.398C240.357 293.798 239.824 293.998 239.291 293.998H218.422C216.222 293.998 214.088 293.131 212.555 291.598C211.021 290.066 210.088 288 210.088 285.867V271.606C210.088 269.473 210.954 267.341 212.555 265.875C214.088 264.342 216.222 263.475 218.422 263.475H233.023C235.223 263.475 237.357 264.342 238.891 265.875C240.424 267.407 241.357 269.34 241.357 271.539Z" fill="#1B92D8"/>
<path d="M226.689 271.539C226.689 270.873 226.156 270.34 225.489 270.34C224.822 270.34 224.289 270.873 224.289 271.539V286.2C224.289 286.867 224.822 287.4 225.489 287.4C226.156 287.4 226.689 286.867 226.689 286.2V271.539Z" fill="white"/>
<path d="M231.89 276.204C231.89 275.538 231.223 274.938 230.49 274.938C229.69 274.938 229.09 275.471 229.09 276.204V281.136C229.09 281.802 229.756 282.402 230.49 282.402C231.29 282.402 231.89 281.869 231.89 281.136V276.204Z" fill="white"/>
<path d="M222.422 276.204C222.422 275.538 221.756 274.938 221.022 274.938C220.289 274.938 219.622 275.471 219.622 276.204V281.136C219.622 281.802 220.289 282.402 221.022 282.402C221.756 282.402 222.422 281.869 222.422 281.136V276.204Z" fill="white"/>
<path d="M235.423 280.003C236.086 280.003 236.624 279.495 236.624 278.87C236.624 278.244 236.086 277.737 235.423 277.737C234.761 277.737 234.223 278.244 234.223 278.87C234.223 279.495 234.761 280.003 235.423 280.003Z" fill="white"/>
<path d="M216.022 280.003C216.684 280.003 217.222 279.495 217.222 278.87C217.222 278.244 216.684 277.737 216.022 277.737C215.359 277.737 214.822 278.244 214.822 278.87C214.822 279.495 215.359 280.003 216.022 280.003Z" fill="white"/>
<path d="M260.559 291.665C254.625 291.665 250.425 288.533 249.958 283.535H254.825C255.359 286.001 257.626 287.533 260.893 287.533C263.56 287.533 265.16 286.467 265.16 284.668C265.16 283.268 264.093 282.335 261.959 281.935L257.892 281.136C253.159 280.203 250.958 278.003 250.958 274.272C250.958 269.74 254.692 266.741 260.226 266.741C262.359 266.741 269.494 267.274 270.294 274.272H265.426C265.093 272.539 263.96 270.606 260.493 270.606C257.692 270.606 255.959 271.806 255.959 273.805C255.959 275.804 257.759 276.404 259.693 276.804L262.759 277.404C267.96 278.47 270.16 280.469 270.16 284.068C270.16 288.733 266.36 291.665 260.559 291.665Z" fill="#1F2937"/>
<path d="M297.03 291.199V282.468C297.03 279.669 295.563 278.07 293.096 278.07C292.429 278.07 291.696 278.27 291.096 278.67C290.496 279.07 289.962 279.47 289.629 280.069V280.136V280.203C289.696 280.802 289.762 281.402 289.762 282.002V291.132H285.095V282.402C285.095 279.603 283.695 278.003 281.095 278.003C280.428 278.07 279.761 278.27 279.228 278.603C278.695 278.936 278.228 279.403 277.894 280.003V280.069V291.132H273.161V274.471H277.828V275.738L278.161 275.404C278.695 274.871 279.361 274.471 280.095 274.205C280.828 273.938 281.561 273.805 282.362 273.872C283.362 273.872 284.362 274.071 285.295 274.471C286.229 274.871 287.029 275.471 287.695 276.204L287.829 276.404L288.029 276.271C288.829 275.471 289.829 274.871 290.896 274.471C291.962 274.071 293.096 273.872 294.229 273.938C298.497 273.938 301.63 277.337 301.63 281.935V291.065H297.03V291.199Z" fill="#1F2937"/>
<path d="M313.698 277.937C313.031 277.937 312.431 278.07 311.831 278.337C311.231 278.603 310.698 278.936 310.298 279.403C309.831 279.869 309.498 280.403 309.298 281.002C309.098 281.602 308.964 282.202 309.031 282.868C309.031 283.468 309.098 284.135 309.364 284.734C309.564 285.334 309.964 285.867 310.364 286.334C310.764 286.8 311.364 287.133 311.898 287.4C312.498 287.667 313.098 287.8 313.765 287.8C314.565 287.8 315.431 287.667 316.165 287.267C316.898 286.934 317.565 286.4 318.032 285.734V285.667V280.069V280.003C317.565 279.336 316.898 278.803 316.165 278.47C315.431 278.137 314.498 277.937 313.698 277.937ZM312.831 291.532C310.564 291.465 308.364 290.532 306.764 288.933C305.164 287.333 304.297 285.134 304.364 282.935C304.297 281.802 304.497 280.669 304.897 279.67C305.297 278.603 305.897 277.67 306.697 276.871C307.497 276.071 308.431 275.404 309.498 274.938C310.564 274.471 311.698 274.272 312.831 274.272C314.565 274.205 316.232 274.671 317.698 275.604L318.032 275.804V274.605H322.566V291.265H317.898V290.066L317.565 290.266C316.232 291.132 314.565 291.598 312.831 291.532Z" fill="#1F2937"/>
<path d="M326.499 291.199V274.538H331.166V276.737L331.5 276.404C333.1 275.005 335.167 274.205 337.3 274.271V278.537C336.167 278.537 335.033 278.736 333.967 279.203C332.9 279.603 331.966 280.269 331.166 281.069V281.136V291.199H326.499Z" fill="#1F2937"/>
<path d="M348.768 291.732C344.634 291.732 341.968 288.933 341.968 284.601V278.337H338.301V274.605H341.968V268.54H346.568V274.605H352.902V278.337H346.568V284.601C346.568 286.534 347.768 287.6 349.835 287.6C350.768 287.6 351.702 287.467 352.635 287.2L353.235 290.999C351.769 291.532 350.235 291.732 348.768 291.732Z" fill="#1F2937"/>
<path d="M363.236 282.269H371.237L367.17 272.672L363.236 282.269ZM374.904 291.199L372.971 286.534H361.436L359.502 291.199H354.369L364.903 267.274H369.57L380.038 291.199H374.904Z" fill="#1F2937"/>
<path d="M388.639 291.732C385.838 291.732 381.105 290.932 380.638 285.734H384.838C385.172 287.4 386.439 288.266 388.639 288.266C390.572 288.266 391.839 287.6 391.839 286.6C391.839 285.801 391.106 285.201 389.972 285.001L386.239 284.334C384.372 284.001 381.238 282.935 381.238 279.536C381.238 276.137 384.038 274.072 388.572 274.072C390.706 274.072 395.639 274.605 396.173 279.47H391.972C391.772 278.137 390.506 277.404 388.572 277.404C386.639 277.404 385.772 278.337 385.772 279.07C385.772 279.603 386.105 280.536 388.039 280.869L391.239 281.402C394.639 282.002 396.373 283.601 396.373 286.2C396.306 289.599 393.373 291.732 388.639 291.732Z" fill="#1F2937"/>
<path d="M406.107 291.732C403.307 291.732 398.573 290.932 398.106 285.734H402.307C402.64 287.4 403.907 288.266 406.107 288.266C408.041 288.266 409.308 287.6 409.308 286.6C409.308 285.801 408.574 285.201 407.441 285.001L403.707 284.334C401.84 284.001 398.707 282.935 398.707 279.536C398.707 276.137 401.507 274.072 406.041 274.072C408.174 274.072 413.108 274.605 413.641 279.47H409.441C409.241 278.137 407.974 277.404 406.041 277.404C404.107 277.404 403.24 278.337 403.24 279.07C403.24 279.603 403.507 280.536 405.507 280.869L408.708 281.402C412.108 282.002 413.841 283.601 413.841 286.2C413.775 289.599 410.841 291.732 406.107 291.732Z" fill="#1F2937"/>
<path d="M419.175 270.939C418.775 270.939 418.442 270.873 418.108 270.806C417.775 270.739 417.441 270.473 417.175 270.273C416.908 270.006 416.708 269.74 416.575 269.407C416.441 269.073 416.375 268.74 416.375 268.34C416.375 267.607 416.641 266.874 417.175 266.408C417.708 265.875 418.442 265.608 419.175 265.608C419.908 265.608 420.642 265.875 421.175 266.408C421.709 266.941 421.975 267.607 421.975 268.34C421.975 268.674 421.909 269.073 421.775 269.407C421.642 269.74 421.442 270.006 421.175 270.273C420.909 270.54 420.575 270.739 420.242 270.806C419.908 270.939 419.575 271.006 419.175 270.939ZM416.908 291.199V274.538H421.575V291.199H416.908Z" fill="#1F2937"/>
<path d="M432.31 291.732C429.51 291.732 424.776 290.932 424.309 285.734H428.509C428.843 287.4 430.11 288.266 432.31 288.266C434.243 288.266 435.443 287.6 435.443 286.6C435.443 285.801 434.71 285.201 433.577 285.001L429.843 284.334C427.976 284.001 424.842 282.935 424.842 279.536C424.842 276.137 427.643 274.072 432.176 274.072C434.31 274.072 439.244 274.605 439.777 279.47H435.577C435.377 278.137 434.11 277.404 432.176 277.404C430.243 277.404 429.376 278.337 429.376 279.07C429.376 279.603 429.71 280.536 431.643 280.869L434.843 281.402C438.244 282.002 439.977 283.601 439.977 286.2C439.977 289.599 437.044 291.732 432.31 291.732Z" fill="#1F2937"/>
<path d="M451.445 291.732C447.311 291.732 444.644 288.933 444.644 284.601V278.337H440.977V274.605H444.644V268.54H449.245V274.605H455.579V278.337H449.245V284.601C449.245 286.534 450.445 287.6 452.445 287.6C453.378 287.6 454.312 287.467 455.245 287.2L455.845 290.999C454.445 291.532 452.912 291.732 451.445 291.732Z" fill="#1F2937"/>
</g>
<defs>
<filter id="filter0_d_176_95438" x="171.551" y="233.178" width="320.563" height="100.637" filterUnits="userSpaceOnUse" color-interpolation-filters="sRGB">
<feFlood flood-opacity="0" result="BackgroundImageFix"/>
<feColorMatrix in="SourceAlpha" type="matrix" values="0 0 0 0 0 0 0 0 0 0 0 0 0 0 0 0 0 0 127 0" result="hardAlpha"/>
<feOffset dy="4"/>
<feGaussianBlur stdDeviation="5"/>
<feComposite in2="hardAlpha" operator="out"/>
<feColorMatrix type="matrix" values="0 0 0 0 0.0745098 0 0 0 0 0.4 0 0 0 0 0.592157 0 0 0 0.75 0"/>
<feBlend mode="normal" in2="BackgroundImageFix" result="effect1_dropShadow_176_95438"/>
<feBlend mode="normal" in="SourceGraphic" in2="effect1_dropShadow_176_95438" result="shape"/>
</filter>
<linearGradient id="paint0_linear_176_95438" x1="112.33" y1="77.3548" x2="112.33" y2="49.705" gradientUnits="userSpaceOnUse">
<stop stop-color="#E09B3D"/>
<stop offset="0.3" stop-color="#C74C4D"/>
<stop offset="0.6" stop-color="#C21975"/>
<stop offset="1" stop-color="#7024C4"/>
</linearGradient>
<linearGradient id="paint1_linear_176_95438" x1="112.33" y1="77.3548" x2="112.33" y2="49.705" gradientUnits="userSpaceOnUse">
<stop stop-color="#E09B3D"/>
<stop offset="0.3" stop-color="#C74C4D"/>
<stop offset="0.6" stop-color="#C21975"/>
<stop offset="1" stop-color="#7024C4"/>
</linearGradient>
<linearGradient id="paint2_linear_176_95438" x1="119.597" y1="77.3549" x2="119.597" y2="49.7051" gradientUnits="userSpaceOnUse">
<stop stop-color="#E09B3D"/>
<stop offset="0.3" stop-color="#C74C4D"/>
<stop offset="0.6" stop-color="#C21975"/>
<stop offset="1" stop-color="#7024C4"/>
</linearGradient>
<linearGradient id="paint3_linear_176_95438" x1="379.023" y1="48.7934" x2="379.023" y2="78.0674" gradientUnits="userSpaceOnUse">
<stop stop-color="#42BCE8"/>
<stop offset="1" stop-color="#23A7DC"/>
</linearGradient>
<clipPath id="clip0_176_95438">
<rect width="670" height="542" fill="white"/>
</clipPath>
</defs>
</svg>
